<svg width="1177" height="555" viewBox="0 0 1177 555" fill="none" xmlns="http://www.w3.org/2000/svg">
<rect width="1177" height="555" fill="url(#paint0_linear_1_48)"/>
<path d="M444.215 139.855L450.473 138.871C450.824 141.379 451.797 143.301 453.391 144.637C455.008 145.973 457.258 146.641 460.141 146.641C463.047 146.641 465.203 146.055 466.609 144.883C468.016 143.688 468.719 142.293 468.719 140.699C468.719 139.27 468.098 138.145 466.855 137.324C465.988 136.762 463.832 136.047 460.387 135.18C455.746 134.008 452.523 133 450.719 132.156C448.938 131.289 447.578 130.105 446.641 128.605C445.727 127.082 445.27 125.406 445.27 123.578C445.27 121.914 445.645 120.379 446.395 118.973C447.168 117.543 448.211 116.359 449.523 115.422C450.508 114.695 451.844 114.086 453.531 113.594C455.242 113.078 457.07 112.82 459.016 112.82C461.945 112.82 464.512 113.242 466.715 114.086C468.941 114.93 470.582 116.078 471.637 117.531C472.691 118.961 473.418 120.883 473.816 123.297L467.629 124.141C467.348 122.219 466.527 120.719 465.168 119.641C463.832 118.562 461.934 118.023 459.473 118.023C456.566 118.023 454.492 118.504 453.25 119.465C452.008 120.426 451.387 121.551 451.387 122.84C451.387 123.66 451.645 124.398 452.16 125.055C452.676 125.734 453.484 126.297 454.586 126.742C455.219 126.977 457.082 127.516 460.176 128.359C464.652 129.555 467.77 130.539 469.527 131.312C471.309 132.062 472.703 133.164 473.711 134.617C474.719 136.07 475.223 137.875 475.223 140.031C475.223 142.141 474.602 144.133 473.359 146.008C472.141 147.859 470.371 149.301 468.051 150.332C465.73 151.34 463.105 151.844 460.176 151.844C455.324 151.844 451.621 150.836 449.066 148.82C446.535 146.805 444.918 143.816 444.215 139.855ZM507.109 137.324L513.332 138.133C512.652 142.422 510.906 145.785 508.094 148.223C505.305 150.637 501.871 151.844 497.793 151.844C492.684 151.844 488.57 150.18 485.453 146.852C482.359 143.5 480.812 138.707 480.812 132.473C480.812 128.441 481.48 124.914 482.816 121.891C484.152 118.867 486.18 116.605 488.898 115.105C491.641 113.582 494.617 112.82 497.828 112.82C501.883 112.82 505.199 113.852 507.777 115.914C510.355 117.953 512.008 120.859 512.734 124.633L506.582 125.582C505.996 123.074 504.953 121.188 503.453 119.922C501.977 118.656 500.184 118.023 498.074 118.023C494.887 118.023 492.297 119.172 490.305 121.469C488.312 123.742 487.316 127.352 487.316 132.297C487.316 137.312 488.277 140.957 490.199 143.23C492.121 145.504 494.629 146.641 497.723 146.641C500.207 146.641 502.281 145.879 503.945 144.355C505.609 142.832 506.664 140.488 507.109 137.324ZM543.109 146.395C540.766 148.387 538.504 149.793 536.324 150.613C534.168 151.434 531.848 151.844 529.363 151.844C525.262 151.844 522.109 150.848 519.906 148.855C517.703 146.84 516.602 144.273 516.602 141.156C516.602 139.328 517.012 137.664 517.832 136.164C518.676 134.641 519.766 133.422 521.102 132.508C522.461 131.594 523.984 130.902 525.672 130.434C526.914 130.105 528.789 129.789 531.297 129.484C536.406 128.875 540.168 128.148 542.582 127.305C542.605 126.438 542.617 125.887 542.617 125.652C542.617 123.074 542.02 121.258 540.824 120.203C539.207 118.773 536.805 118.059 533.617 118.059C530.641 118.059 528.438 118.586 527.008 119.641C525.602 120.672 524.559 122.512 523.879 125.16L517.691 124.316C518.254 121.668 519.18 119.535 520.469 117.918C521.758 116.277 523.621 115.023 526.059 114.156C528.496 113.266 531.32 112.82 534.531 112.82C537.719 112.82 540.309 113.195 542.301 113.945C544.293 114.695 545.758 115.645 546.695 116.793C547.633 117.918 548.289 119.348 548.664 121.082C548.875 122.16 548.98 124.105 548.98 126.918V135.355C548.98 141.238 549.109 144.965 549.367 146.535C549.648 148.082 550.188 149.57 550.984 151H544.375C543.719 149.688 543.297 148.152 543.109 146.395ZM542.582 132.262C540.285 133.199 536.84 133.996 532.246 134.652C529.645 135.027 527.805 135.449 526.727 135.918C525.648 136.387 524.816 137.078 524.23 137.992C523.645 138.883 523.352 139.879 523.352 140.98C523.352 142.668 523.984 144.074 525.25 145.199C526.539 146.324 528.414 146.887 530.875 146.887C533.312 146.887 535.48 146.359 537.379 145.305C539.277 144.227 540.672 142.762 541.562 140.91C542.242 139.48 542.582 137.371 542.582 134.582V132.262ZM558.824 151V113.664H564.484V118.902C565.656 117.074 567.215 115.609 569.16 114.508C571.105 113.383 573.32 112.82 575.805 112.82C578.57 112.82 580.832 113.395 582.59 114.543C584.371 115.691 585.625 117.297 586.352 119.359C589.305 115 593.148 112.82 597.883 112.82C601.586 112.82 604.434 113.852 606.426 115.914C608.418 117.953 609.414 121.105 609.414 125.371V151H603.121V127.48C603.121 124.949 602.91 123.133 602.488 122.031C602.09 120.906 601.352 120.004 600.273 119.324C599.195 118.645 597.93 118.305 596.477 118.305C593.852 118.305 591.672 119.184 589.938 120.941C588.203 122.676 587.336 125.465 587.336 129.309V151H581.008V126.742C581.008 123.93 580.492 121.82 579.461 120.414C578.43 119.008 576.742 118.305 574.398 118.305C572.617 118.305 570.965 118.773 569.441 119.711C567.941 120.648 566.852 122.02 566.172 123.824C565.492 125.629 565.152 128.23 565.152 131.629V151H558.824ZM643.164 146.395C640.82 148.387 638.559 149.793 636.379 150.613C634.223 151.434 631.902 151.844 629.418 151.844C625.316 151.844 622.164 150.848 619.961 148.855C617.758 146.84 616.656 144.273 616.656 141.156C616.656 139.328 617.066 137.664 617.887 136.164C618.73 134.641 619.82 133.422 621.156 132.508C622.516 131.594 624.039 130.902 625.727 130.434C626.969 130.105 628.844 129.789 631.352 129.484C636.461 128.875 640.223 128.148 642.637 127.305C642.66 126.438 642.672 125.887 642.672 125.652C642.672 123.074 642.074 121.258 640.879 120.203C639.262 118.773 636.859 118.059 633.672 118.059C630.695 118.059 628.492 118.586 627.062 119.641C625.656 120.672 624.613 122.512 623.934 125.16L617.746 124.316C618.309 121.668 619.234 119.535 620.523 117.918C621.812 116.277 623.676 115.023 626.113 114.156C628.551 113.266 631.375 112.82 634.586 112.82C637.773 112.82 640.363 113.195 642.355 113.945C644.348 114.695 645.812 115.645 646.75 116.793C647.688 117.918 648.344 119.348 648.719 121.082C648.93 122.16 649.035 124.105 649.035 126.918V135.355C649.035 141.238 649.164 144.965 649.422 146.535C649.703 148.082 650.242 149.57 651.039 151H644.43C643.773 149.688 643.352 148.152 643.164 146.395ZM642.637 132.262C640.34 133.199 636.895 133.996 632.301 134.652C629.699 135.027 627.859 135.449 626.781 135.918C625.703 136.387 624.871 137.078 624.285 137.992C623.699 138.883 623.406 139.879 623.406 140.98C623.406 142.668 624.039 144.074 625.305 145.199C626.594 146.324 628.469 146.887 630.93 146.887C633.367 146.887 635.535 146.359 637.434 145.305C639.332 144.227 640.727 142.762 641.617 140.91C642.297 139.48 642.637 137.371 642.637 134.582V132.262ZM655.539 151V145.867L679.305 118.586C676.609 118.727 674.23 118.797 672.168 118.797H656.945V113.664H687.461V117.848L667.246 141.543L663.344 145.867C666.18 145.656 668.84 145.551 671.324 145.551H688.586V151H655.539ZM692.523 132.332C692.523 125.418 694.445 120.297 698.289 116.969C701.5 114.203 705.414 112.82 710.031 112.82C715.164 112.82 719.359 114.508 722.617 117.883C725.875 121.234 727.504 125.875 727.504 131.805C727.504 136.609 726.777 140.395 725.324 143.16C723.895 145.902 721.797 148.035 719.031 149.559C716.289 151.082 713.289 151.844 710.031 151.844C704.805 151.844 700.574 150.168 697.34 146.816C694.129 143.465 692.523 138.637 692.523 132.332ZM699.027 132.332C699.027 137.113 700.07 140.699 702.156 143.09C704.242 145.457 706.867 146.641 710.031 146.641C713.172 146.641 715.785 145.445 717.871 143.055C719.957 140.664 721 137.02 721 132.121C721 127.504 719.945 124.012 717.836 121.645C715.75 119.254 713.148 118.059 710.031 118.059C706.867 118.059 704.242 119.242 702.156 121.609C700.07 123.977 699.027 127.551 699.027 132.332ZM734.957 151V113.664H740.652V118.973C743.395 114.871 747.355 112.82 752.535 112.82C754.785 112.82 756.848 113.23 758.723 114.051C760.621 114.848 762.039 115.902 762.977 117.215C763.914 118.527 764.57 120.086 764.945 121.891C765.18 123.062 765.297 125.113 765.297 128.043V151H758.969V128.289C758.969 125.711 758.723 123.789 758.23 122.523C757.738 121.234 756.859 120.215 755.594 119.465C754.352 118.691 752.887 118.305 751.199 118.305C748.504 118.305 746.172 119.16 744.203 120.871C742.258 122.582 741.285 125.828 741.285 130.609V151H734.957Z" fill="#0F1111"/>
<path d="M504.852 245V227.82H510.77C512.105 227.82 513.125 227.902 513.828 228.066C514.812 228.293 515.652 228.703 516.348 229.297C517.254 230.062 517.93 231.043 518.375 232.238C518.828 233.426 519.055 234.785 519.055 236.316C519.055 237.621 518.902 238.777 518.598 239.785C518.293 240.793 517.902 241.629 517.426 242.293C516.949 242.949 516.426 243.469 515.855 243.852C515.293 244.227 514.609 244.512 513.805 244.707C513.008 244.902 512.09 245 511.051 245H504.852ZM507.125 242.973H510.793C511.926 242.973 512.812 242.867 513.453 242.656C514.102 242.445 514.617 242.148 515 241.766C515.539 241.227 515.957 240.504 516.254 239.598C516.559 238.684 516.711 237.578 516.711 236.281C516.711 234.484 516.414 233.105 515.82 232.145C515.234 231.176 514.52 230.527 513.676 230.199C513.066 229.965 512.086 229.848 510.734 229.848H507.125V242.973ZM521.141 238.777C521.141 236.473 521.781 234.766 523.062 233.656C524.133 232.734 525.438 232.273 526.977 232.273C528.688 232.273 530.086 232.836 531.172 233.961C532.258 235.078 532.801 236.625 532.801 238.602C532.801 240.203 532.559 241.465 532.074 242.387C531.598 243.301 530.898 244.012 529.977 244.52C529.062 245.027 528.062 245.281 526.977 245.281C525.234 245.281 523.824 244.723 522.746 243.605C521.676 242.488 521.141 240.879 521.141 238.777ZM523.309 238.777C523.309 240.371 523.656 241.566 524.352 242.363C525.047 243.152 525.922 243.547 526.977 243.547C528.023 243.547 528.895 243.148 529.59 242.352C530.285 241.555 530.633 240.34 530.633 238.707C530.633 237.168 530.281 236.004 529.578 235.215C528.883 234.418 528.016 234.02 526.977 234.02C525.922 234.02 525.047 234.414 524.352 235.203C523.656 235.992 523.309 237.184 523.309 238.777ZM535.285 245V232.555H537.184V234.324C538.098 232.957 539.418 232.273 541.145 232.273C541.895 232.273 542.582 232.41 543.207 232.684C543.84 232.949 544.312 233.301 544.625 233.738C544.938 234.176 545.156 234.695 545.281 235.297C545.359 235.688 545.398 236.371 545.398 237.348V245H543.289V237.43C543.289 236.57 543.207 235.93 543.043 235.508C542.879 235.078 542.586 234.738 542.164 234.488C541.75 234.23 541.262 234.102 540.699 234.102C539.801 234.102 539.023 234.387 538.367 234.957C537.719 235.527 537.395 236.609 537.395 238.203V245H535.285ZM553.25 243.113L553.555 244.977C552.961 245.102 552.43 245.164 551.961 245.164C551.195 245.164 550.602 245.043 550.18 244.801C549.758 244.559 549.461 244.242 549.289 243.852C549.117 243.453 549.031 242.621 549.031 241.355V234.195H547.484V232.555H549.031V229.473L551.129 228.207V232.555H553.25V234.195H551.129V241.473C551.129 242.074 551.164 242.461 551.234 242.633C551.312 242.805 551.434 242.941 551.598 243.043C551.77 243.145 552.012 243.195 552.324 243.195C552.559 243.195 552.867 243.168 553.25 243.113ZM561.16 241.285L563.246 240.957C563.363 241.793 563.688 242.434 564.219 242.879C564.758 243.324 565.508 243.547 566.469 243.547C567.438 243.547 568.156 243.352 568.625 242.961C569.094 242.562 569.328 242.098 569.328 241.566C569.328 241.09 569.121 240.715 568.707 240.441C568.418 240.254 567.699 240.016 566.551 239.727C565.004 239.336 563.93 239 563.328 238.719C562.734 238.43 562.281 238.035 561.969 237.535C561.664 237.027 561.512 236.469 561.512 235.859C561.512 235.305 561.637 234.793 561.887 234.324C562.145 233.848 562.492 233.453 562.93 233.141C563.258 232.898 563.703 232.695 564.266 232.531C564.836 232.359 565.445 232.273 566.094 232.273C567.07 232.273 567.926 232.414 568.66 232.695C569.402 232.977 569.949 233.359 570.301 233.844C570.652 234.32 570.895 234.961 571.027 235.766L568.965 236.047C568.871 235.406 568.598 234.906 568.145 234.547C567.699 234.188 567.066 234.008 566.246 234.008C565.277 234.008 564.586 234.168 564.172 234.488C563.758 234.809 563.551 235.184 563.551 235.613C563.551 235.887 563.637 236.133 563.809 236.352C563.98 236.578 564.25 236.766 564.617 236.914C564.828 236.992 565.449 237.172 566.48 237.453C567.973 237.852 569.012 238.18 569.598 238.438C570.191 238.688 570.656 239.055 570.992 239.539C571.328 240.023 571.496 240.625 571.496 241.344C571.496 242.047 571.289 242.711 570.875 243.336C570.469 243.953 569.879 244.434 569.105 244.777C568.332 245.113 567.457 245.281 566.48 245.281C564.863 245.281 563.629 244.945 562.777 244.273C561.934 243.602 561.395 242.605 561.16 241.285ZM574.004 245V227.82H576.113V233.984C577.098 232.844 578.34 232.273 579.84 232.273C580.762 232.273 581.562 232.457 582.242 232.824C582.922 233.184 583.406 233.684 583.695 234.324C583.992 234.965 584.141 235.895 584.141 237.113V245H582.031V237.113C582.031 236.059 581.801 235.293 581.34 234.816C580.887 234.332 580.242 234.09 579.406 234.09C578.781 234.09 578.191 234.254 577.637 234.582C577.09 234.902 576.699 235.34 576.465 235.895C576.23 236.449 576.113 237.215 576.113 238.191V245H574.004ZM586.578 238.777C586.578 236.473 587.219 234.766 588.5 233.656C589.57 232.734 590.875 232.273 592.414 232.273C594.125 232.273 595.523 232.836 596.609 233.961C597.695 235.078 598.238 236.625 598.238 238.602C598.238 240.203 597.996 241.465 597.512 242.387C597.035 243.301 596.336 244.012 595.414 244.52C594.5 245.027 593.5 245.281 592.414 245.281C590.672 245.281 589.262 244.723 588.184 243.605C587.113 242.488 586.578 240.879 586.578 238.777ZM588.746 238.777C588.746 240.371 589.094 241.566 589.789 242.363C590.484 243.152 591.359 243.547 592.414 243.547C593.461 243.547 594.332 243.148 595.027 242.352C595.723 241.555 596.07 240.34 596.07 238.707C596.07 237.168 595.719 236.004 595.016 235.215C594.32 234.418 593.453 234.02 592.414 234.02C591.359 234.02 590.484 234.414 589.789 235.203C589.094 235.992 588.746 237.184 588.746 238.777ZM600.723 249.77V232.555H602.645V234.172C603.098 233.539 603.609 233.066 604.18 232.754C604.75 232.434 605.441 232.273 606.254 232.273C607.316 232.273 608.254 232.547 609.066 233.094C609.879 233.641 610.492 234.414 610.906 235.414C611.32 236.406 611.527 237.496 611.527 238.684C611.527 239.957 611.297 241.105 610.836 242.129C610.383 243.145 609.719 243.926 608.844 244.473C607.977 245.012 607.062 245.281 606.102 245.281C605.398 245.281 604.766 245.133 604.203 244.836C603.648 244.539 603.191 244.164 602.832 243.711V249.77H600.723ZM602.633 238.848C602.633 240.449 602.957 241.633 603.605 242.398C604.254 243.164 605.039 243.547 605.961 243.547C606.898 243.547 607.699 243.152 608.363 242.363C609.035 241.566 609.371 240.336 609.371 238.672C609.371 237.086 609.043 235.898 608.387 235.109C607.738 234.32 606.961 233.926 606.055 233.926C605.156 233.926 604.359 234.348 603.664 235.191C602.977 236.027 602.633 237.246 602.633 238.848ZM628.883 243.465C628.102 244.129 627.348 244.598 626.621 244.871C625.902 245.145 625.129 245.281 624.301 245.281C622.934 245.281 621.883 244.949 621.148 244.285C620.414 243.613 620.047 242.758 620.047 241.719C620.047 241.109 620.184 240.555 620.457 240.055C620.738 239.547 621.102 239.141 621.547 238.836C622 238.531 622.508 238.301 623.07 238.145C623.484 238.035 624.109 237.93 624.945 237.828C626.648 237.625 627.902 237.383 628.707 237.102C628.715 236.812 628.719 236.629 628.719 236.551C628.719 235.691 628.52 235.086 628.121 234.734C627.582 234.258 626.781 234.02 625.719 234.02C624.727 234.02 623.992 234.195 623.516 234.547C623.047 234.891 622.699 235.504 622.473 236.387L620.41 236.105C620.598 235.223 620.906 234.512 621.336 233.973C621.766 233.426 622.387 233.008 623.199 232.719C624.012 232.422 624.953 232.273 626.023 232.273C627.086 232.273 627.949 232.398 628.613 232.648C629.277 232.898 629.766 233.215 630.078 233.598C630.391 233.973 630.609 234.449 630.734 235.027C630.805 235.387 630.84 236.035 630.84 236.973V239.785C630.84 241.746 630.883 242.988 630.969 243.512C631.062 244.027 631.242 244.523 631.508 245H629.305C629.086 244.562 628.945 244.051 628.883 243.465ZM628.707 238.754C627.941 239.066 626.793 239.332 625.262 239.551C624.395 239.676 623.781 239.816 623.422 239.973C623.062 240.129 622.785 240.359 622.59 240.664C622.395 240.961 622.297 241.293 622.297 241.66C622.297 242.223 622.508 242.691 622.93 243.066C623.359 243.441 623.984 243.629 624.805 243.629C625.617 243.629 626.34 243.453 626.973 243.102C627.605 242.742 628.07 242.254 628.367 241.637C628.594 241.16 628.707 240.457 628.707 239.527V238.754ZM634.121 245V232.555H636.02V234.324C636.934 232.957 638.254 232.273 639.98 232.273C640.73 232.273 641.418 232.41 642.043 232.684C642.676 232.949 643.148 233.301 643.461 233.738C643.773 234.176 643.992 234.695 644.117 235.297C644.195 235.688 644.234 236.371 644.234 237.348V245H642.125V237.43C642.125 236.57 642.043 235.93 641.879 235.508C641.715 235.078 641.422 234.738 641 234.488C640.586 234.23 640.098 234.102 639.535 234.102C638.637 234.102 637.859 234.387 637.203 234.957C636.555 235.527 636.23 236.609 636.23 238.203V245H634.121ZM647.387 249.793L647.152 247.812C647.613 247.938 648.016 248 648.359 248C648.828 248 649.203 247.922 649.484 247.766C649.766 247.609 649.996 247.391 650.176 247.109C650.309 246.898 650.523 246.375 650.82 245.539C650.859 245.422 650.922 245.25 651.008 245.023L646.285 232.555H648.559L651.148 239.762C651.484 240.676 651.785 241.637 652.051 242.645C652.293 241.676 652.582 240.73 652.918 239.809L655.578 232.555H657.688L652.953 245.211C652.445 246.578 652.051 247.52 651.77 248.035C651.395 248.73 650.965 249.238 650.48 249.559C649.996 249.887 649.418 250.051 648.746 250.051C648.34 250.051 647.887 249.965 647.387 249.793ZM664.086 243.113L664.391 244.977C663.797 245.102 663.266 245.164 662.797 245.164C662.031 245.164 661.438 245.043 661.016 244.801C660.594 244.559 660.297 244.242 660.125 243.852C659.953 243.453 659.867 242.621 659.867 241.355V234.195H658.32V232.555H659.867V229.473L661.965 228.207V232.555H664.086V234.195H661.965V241.473C661.965 242.074 662 242.461 662.07 242.633C662.148 242.805 662.27 242.941 662.434 243.043C662.605 243.145 662.848 243.195 663.16 243.195C663.395 243.195 663.703 243.168 664.086 243.113ZM666.16 245V227.82H668.27V233.984C669.254 232.844 670.496 232.273 671.996 232.273C672.918 232.273 673.719 232.457 674.398 232.824C675.078 233.184 675.562 233.684 675.852 234.324C676.148 234.965 676.297 235.895 676.297 237.113V245H674.188V237.113C674.188 236.059 673.957 235.293 673.496 234.816C673.043 234.332 672.398 234.09 671.562 234.09C670.938 234.09 670.348 234.254 669.793 234.582C669.246 234.902 668.855 235.34 668.621 235.895C668.387 236.449 668.27 237.215 668.27 238.191V245H666.16ZM679.531 230.246V227.82H681.641V230.246H679.531ZM679.531 245V232.555H681.641V245H679.531ZM684.863 245V232.555H686.762V234.324C687.676 232.957 688.996 232.273 690.723 232.273C691.473 232.273 692.16 232.41 692.785 232.684C693.418 232.949 693.891 233.301 694.203 233.738C694.516 234.176 694.734 234.695 694.859 235.297C694.938 235.688 694.977 236.371 694.977 237.348V245H692.867V237.43C692.867 236.57 692.785 235.93 692.621 235.508C692.457 235.078 692.164 234.738 691.742 234.488C691.328 234.23 690.84 234.102 690.277 234.102C689.379 234.102 688.602 234.387 687.945 234.957C687.297 235.527 686.973 236.609 686.973 238.203V245H684.863ZM697.836 246.031L699.887 246.336C699.973 246.969 700.211 247.43 700.602 247.719C701.125 248.109 701.84 248.305 702.746 248.305C703.723 248.305 704.477 248.109 705.008 247.719C705.539 247.328 705.898 246.781 706.086 246.078C706.195 245.648 706.246 244.746 706.238 243.371C705.316 244.457 704.168 245 702.793 245C701.082 245 699.758 244.383 698.82 243.148C697.883 241.914 697.414 240.434 697.414 238.707C697.414 237.52 697.629 236.426 698.059 235.426C698.488 234.418 699.109 233.641 699.922 233.094C700.742 232.547 701.703 232.273 702.805 232.273C704.273 232.273 705.484 232.867 706.438 234.055V232.555H708.383V243.312C708.383 245.25 708.184 246.621 707.785 247.426C707.395 248.238 706.77 248.879 705.91 249.348C705.059 249.816 704.008 250.051 702.758 250.051C701.273 250.051 700.074 249.715 699.16 249.043C698.246 248.379 697.805 247.375 697.836 246.031ZM699.582 238.555C699.582 240.188 699.906 241.379 700.555 242.129C701.203 242.879 702.016 243.254 702.992 243.254C703.961 243.254 704.773 242.883 705.43 242.141C706.086 241.391 706.414 240.219 706.414 238.625C706.414 237.102 706.074 235.953 705.395 235.18C704.723 234.406 703.91 234.02 702.957 234.02C702.02 234.02 701.223 234.402 700.566 235.168C699.91 235.926 699.582 237.055 699.582 238.555Z" fill="#0F1111"/>
<path d="M567.306 264V253.979H568.632V264H567.306ZM573.506 262.899L573.684 263.986C573.337 264.059 573.027 264.096 572.754 264.096C572.307 264.096 571.961 264.025 571.715 263.884C571.469 263.743 571.296 263.558 571.195 263.33C571.095 263.098 571.045 262.612 571.045 261.874V257.697H570.143V256.74H571.045V254.942L572.269 254.204V256.74H573.506V257.697H572.269V261.942C572.269 262.293 572.289 262.519 572.33 262.619C572.376 262.719 572.446 262.799 572.542 262.858C572.642 262.918 572.784 262.947 572.966 262.947C573.103 262.947 573.283 262.931 573.506 262.899ZM574.641 255.305V253.876H575.96V255.004C575.96 255.615 575.889 256.054 575.748 256.323C575.552 256.692 575.247 256.97 574.832 257.157L574.531 256.672C574.777 256.572 574.96 256.414 575.078 256.2C575.201 255.981 575.27 255.683 575.283 255.305H574.641ZM577.081 261.833L578.298 261.642C578.366 262.129 578.555 262.503 578.865 262.763C579.18 263.022 579.617 263.152 580.178 263.152C580.743 263.152 581.162 263.038 581.436 262.811C581.709 262.578 581.846 262.307 581.846 261.997C581.846 261.719 581.725 261.5 581.483 261.341C581.315 261.231 580.896 261.092 580.226 260.924C579.323 260.696 578.697 260.5 578.346 260.336C577.999 260.167 577.735 259.937 577.553 259.646C577.375 259.349 577.286 259.023 577.286 258.668C577.286 258.344 577.359 258.046 577.505 257.772C577.655 257.494 577.858 257.264 578.113 257.082C578.305 256.941 578.564 256.822 578.893 256.727C579.225 256.626 579.581 256.576 579.959 256.576C580.529 256.576 581.028 256.658 581.456 256.822C581.889 256.986 582.208 257.21 582.413 257.492C582.618 257.77 582.759 258.144 582.837 258.613L581.634 258.777C581.579 258.404 581.42 258.112 581.155 257.902C580.896 257.693 580.526 257.588 580.048 257.588C579.483 257.588 579.079 257.681 578.838 257.868C578.596 258.055 578.476 258.274 578.476 258.524C578.476 258.684 578.526 258.827 578.626 258.955C578.726 259.087 578.883 259.197 579.098 259.283C579.221 259.329 579.583 259.434 580.185 259.598C581.055 259.83 581.661 260.021 582.003 260.172C582.349 260.318 582.62 260.532 582.816 260.814C583.012 261.097 583.11 261.448 583.11 261.867C583.11 262.277 582.99 262.665 582.748 263.029C582.511 263.389 582.167 263.67 581.716 263.87C581.265 264.066 580.754 264.164 580.185 264.164C579.241 264.164 578.521 263.968 578.024 263.576C577.532 263.184 577.218 262.603 577.081 261.833ZM593.207 263.104C592.751 263.492 592.312 263.765 591.888 263.925C591.468 264.084 591.017 264.164 590.534 264.164C589.737 264.164 589.124 263.97 588.695 263.583C588.267 263.191 588.053 262.692 588.053 262.086C588.053 261.73 588.132 261.407 588.292 261.115C588.456 260.819 588.668 260.582 588.928 260.404C589.192 260.227 589.488 260.092 589.816 260.001C590.058 259.937 590.423 259.876 590.91 259.816C591.904 259.698 592.635 259.557 593.104 259.393C593.109 259.224 593.111 259.117 593.111 259.071C593.111 258.57 592.995 258.217 592.763 258.012C592.448 257.734 591.981 257.595 591.361 257.595C590.783 257.595 590.354 257.697 590.076 257.902C589.803 258.103 589.6 258.461 589.468 258.976L588.265 258.812C588.374 258.297 588.554 257.882 588.805 257.567C589.055 257.248 589.418 257.005 589.892 256.836C590.366 256.663 590.915 256.576 591.539 256.576C592.159 256.576 592.662 256.649 593.05 256.795C593.437 256.941 593.722 257.125 593.904 257.349C594.087 257.567 594.214 257.845 594.287 258.183C594.328 258.392 594.349 258.771 594.349 259.317V260.958C594.349 262.102 594.374 262.826 594.424 263.132C594.479 263.433 594.583 263.722 594.738 264H593.453C593.326 263.745 593.243 263.446 593.207 263.104ZM593.104 260.356C592.658 260.539 591.988 260.694 591.095 260.821C590.589 260.894 590.231 260.976 590.021 261.067C589.812 261.159 589.65 261.293 589.536 261.471C589.422 261.644 589.365 261.838 589.365 262.052C589.365 262.38 589.488 262.653 589.734 262.872C589.985 263.091 590.35 263.2 590.828 263.2C591.302 263.2 591.724 263.098 592.093 262.893C592.462 262.683 592.733 262.398 592.906 262.038C593.038 261.76 593.104 261.35 593.104 260.808V260.356ZM596.235 264V253.979H597.466V264H596.235ZM599.353 264V253.979H600.583V264H599.353ZM611.131 263.104C610.675 263.492 610.235 263.765 609.812 263.925C609.392 264.084 608.941 264.164 608.458 264.164C607.66 264.164 607.048 263.97 606.619 263.583C606.191 263.191 605.977 262.692 605.977 262.086C605.977 261.73 606.056 261.407 606.216 261.115C606.38 260.819 606.592 260.582 606.852 260.404C607.116 260.227 607.412 260.092 607.74 260.001C607.982 259.937 608.346 259.876 608.834 259.816C609.827 259.698 610.559 259.557 611.028 259.393C611.033 259.224 611.035 259.117 611.035 259.071C611.035 258.57 610.919 258.217 610.687 258.012C610.372 257.734 609.905 257.595 609.285 257.595C608.706 257.595 608.278 257.697 608 257.902C607.727 258.103 607.524 258.461 607.392 258.976L606.188 258.812C606.298 258.297 606.478 257.882 606.729 257.567C606.979 257.248 607.341 257.005 607.815 256.836C608.289 256.663 608.839 256.576 609.463 256.576C610.083 256.576 610.586 256.649 610.974 256.795C611.361 256.941 611.646 257.125 611.828 257.349C612.01 257.567 612.138 257.845 612.211 258.183C612.252 258.392 612.272 258.771 612.272 259.317V260.958C612.272 262.102 612.298 262.826 612.348 263.132C612.402 263.433 612.507 263.722 612.662 264H611.377C611.249 263.745 611.167 263.446 611.131 263.104ZM611.028 260.356C610.582 260.539 609.912 260.694 609.019 260.821C608.513 260.894 608.155 260.976 607.945 261.067C607.736 261.159 607.574 261.293 607.46 261.471C607.346 261.644 607.289 261.838 607.289 262.052C607.289 262.38 607.412 262.653 607.658 262.872C607.909 263.091 608.273 263.2 608.752 263.2C609.226 263.2 609.647 263.098 610.017 262.893C610.386 262.683 610.657 262.398 610.83 262.038C610.962 261.76 611.028 261.35 611.028 260.808V260.356ZM618.083 264V253.979H619.313V257.574C619.888 256.909 620.612 256.576 621.487 256.576C622.025 256.576 622.492 256.683 622.889 256.897C623.285 257.107 623.568 257.399 623.736 257.772C623.91 258.146 623.996 258.688 623.996 259.399V264H622.766V259.399C622.766 258.784 622.631 258.338 622.362 258.06C622.098 257.777 621.722 257.636 621.234 257.636C620.87 257.636 620.526 257.731 620.202 257.923C619.883 258.11 619.655 258.365 619.519 258.688C619.382 259.012 619.313 259.459 619.313 260.028V264H618.083ZM625.418 260.37C625.418 259.026 625.792 258.03 626.539 257.383C627.163 256.845 627.924 256.576 628.822 256.576C629.82 256.576 630.636 256.904 631.27 257.561C631.903 258.212 632.22 259.115 632.22 260.268C632.22 261.202 632.078 261.938 631.796 262.476C631.518 263.009 631.11 263.424 630.572 263.72C630.039 264.016 629.456 264.164 628.822 264.164C627.806 264.164 626.983 263.838 626.354 263.187C625.73 262.535 625.418 261.596 625.418 260.37ZM626.683 260.37C626.683 261.3 626.885 261.997 627.291 262.462C627.697 262.922 628.207 263.152 628.822 263.152C629.433 263.152 629.941 262.92 630.347 262.455C630.752 261.99 630.955 261.282 630.955 260.329C630.955 259.431 630.75 258.752 630.34 258.292C629.934 257.827 629.428 257.595 628.822 257.595C628.207 257.595 627.697 257.825 627.291 258.285C626.885 258.745 626.683 259.44 626.683 260.37ZM638.406 263.104C637.951 263.492 637.511 263.765 637.087 263.925C636.668 264.084 636.216 264.164 635.733 264.164C634.936 264.164 634.323 263.97 633.895 263.583C633.466 263.191 633.252 262.692 633.252 262.086C633.252 261.73 633.332 261.407 633.491 261.115C633.655 260.819 633.867 260.582 634.127 260.404C634.391 260.227 634.688 260.092 635.016 260.001C635.257 259.937 635.622 259.876 636.109 259.816C637.103 259.698 637.834 259.557 638.304 259.393C638.308 259.224 638.311 259.117 638.311 259.071C638.311 258.57 638.194 258.217 637.962 258.012C637.647 257.734 637.18 257.595 636.561 257.595C635.982 257.595 635.553 257.697 635.275 257.902C635.002 258.103 634.799 258.461 634.667 258.976L633.464 258.812C633.573 258.297 633.753 257.882 634.004 257.567C634.255 257.248 634.617 257.005 635.091 256.836C635.565 256.663 636.114 256.576 636.738 256.576C637.358 256.576 637.862 256.649 638.249 256.795C638.636 256.941 638.921 257.125 639.104 257.349C639.286 257.567 639.413 257.845 639.486 258.183C639.527 258.392 639.548 258.771 639.548 259.317V260.958C639.548 262.102 639.573 262.826 639.623 263.132C639.678 263.433 639.783 263.722 639.938 264H638.652C638.525 263.745 638.443 263.446 638.406 263.104ZM638.304 260.356C637.857 260.539 637.187 260.694 636.294 260.821C635.788 260.894 635.43 260.976 635.221 261.067C635.011 261.159 634.849 261.293 634.735 261.471C634.621 261.644 634.564 261.838 634.564 262.052C634.564 262.38 634.688 262.653 634.934 262.872C635.184 263.091 635.549 263.2 636.027 263.2C636.501 263.2 636.923 263.098 637.292 262.893C637.661 262.683 637.932 262.398 638.105 262.038C638.238 261.76 638.304 261.35 638.304 260.808V260.356ZM640.642 264L643.294 260.227L640.84 256.74H642.378L643.492 258.442C643.702 258.766 643.87 259.037 643.998 259.256C644.199 258.955 644.383 258.688 644.552 258.456L645.775 256.74H647.245L644.736 260.158L647.437 264H645.926L644.436 261.744L644.039 261.136L642.132 264H640.642Z" fill="#0F1111"/>
<path d="M676.608 161.042C678.846 163.987 674.98 175.548 669.858 179.441C664.736 183.334 672.833 169.248 670.595 166.303C668.357 163.358 652.32 166.814 657.442 162.921C662.565 159.028 674.37 158.097 676.608 161.042Z" fill="#F29D38"/>
<path d="M660.584 173.053C660.584 181.789 631.982 192.081 596.7 192.081C561.418 192.081 561 167.372 561 158.636C561 149.899 561.418 186.808 596.7 186.808C631.982 186.808 660.584 164.316 660.584 173.053Z" fill="#F29D38"/>
<defs>
<linearGradient id="paint0_linear_1_48" x1="588.5" y1="0" x2="588.5" y2="555" gradientUnits="userSpaceOnUse">
<stop stop-color="#ACEA97"/>
<stop offset="0.481279" stop-color="#ACEA97"/>
<stop offset="1" stop-color="#ACEA97" stop-opacity="0"/>
</linearGradient>
</defs>
</svg>
