<svg width="1177" height="555" viewBox="0 0 1177 555" fill="none" xmlns="http://www.w3.org/2000/svg">
<rect width="1177" height="555" fill="url(#paint0_linear_2_56)"/>
<rect width="1177" height="555" fill="url(#paint1_linear_2_56)"/>
<path d="M223.168 108.525H231.093C232.88 108.525 234.242 108.662 235.18 108.936C236.439 109.307 237.519 109.966 238.417 110.913C239.315 111.86 239.999 113.022 240.468 114.399C240.937 115.767 241.171 117.456 241.171 119.468C241.171 121.235 240.951 122.759 240.512 124.038C239.975 125.601 239.208 126.865 238.212 127.832C237.46 128.564 236.444 129.136 235.165 129.546C234.208 129.849 232.929 130 231.327 130H223.168V108.525ZM227.504 112.158V126.382H230.741C231.952 126.382 232.826 126.313 233.363 126.177C234.066 126.001 234.647 125.703 235.106 125.283C235.575 124.863 235.956 124.175 236.249 123.218C236.542 122.251 236.688 120.938 236.688 119.277C236.688 117.617 236.542 116.343 236.249 115.454C235.956 114.565 235.546 113.872 235.019 113.374C234.491 112.876 233.822 112.539 233.012 112.363C232.406 112.227 231.22 112.158 229.452 112.158H227.504ZM243.881 122.002C243.881 120.635 244.218 119.312 244.892 118.032C245.565 116.753 246.518 115.776 247.748 115.103C248.988 114.429 250.37 114.092 251.894 114.092C254.247 114.092 256.176 114.858 257.68 116.392C259.184 117.915 259.936 119.844 259.936 122.178C259.936 124.531 259.174 126.484 257.65 128.037C256.137 129.58 254.228 130.352 251.923 130.352C250.497 130.352 249.135 130.029 247.836 129.385C246.547 128.74 245.565 127.798 244.892 126.558C244.218 125.308 243.881 123.789 243.881 122.002ZM248.1 122.222C248.1 123.765 248.466 124.946 249.198 125.767C249.931 126.587 250.834 126.997 251.908 126.997C252.982 126.997 253.881 126.587 254.604 125.767C255.336 124.946 255.702 123.755 255.702 122.192C255.702 120.669 255.336 119.497 254.604 118.677C253.881 117.856 252.982 117.446 251.908 117.446C250.834 117.446 249.931 117.856 249.198 118.677C248.466 119.497 248.1 120.679 248.1 122.222ZM277.323 130H273.207V122.061C273.207 120.381 273.119 119.297 272.943 118.809C272.768 118.311 272.479 117.925 272.079 117.651C271.688 117.378 271.215 117.241 270.658 117.241C269.945 117.241 269.306 117.437 268.739 117.827C268.173 118.218 267.782 118.735 267.567 119.38C267.362 120.024 267.26 121.216 267.26 122.954V130H263.144V114.443H266.967V116.729C268.324 114.971 270.033 114.092 272.094 114.092C273.002 114.092 273.832 114.258 274.584 114.59C275.336 114.912 275.902 115.327 276.283 115.835C276.674 116.343 276.942 116.919 277.089 117.563C277.245 118.208 277.323 119.131 277.323 120.332V130ZM288.646 114.443V117.725H285.834V123.994C285.834 125.264 285.858 126.006 285.907 126.221C285.966 126.426 286.088 126.597 286.273 126.733C286.469 126.87 286.703 126.938 286.977 126.938C287.357 126.938 287.909 126.807 288.632 126.543L288.983 129.736C288.026 130.146 286.942 130.352 285.731 130.352C284.989 130.352 284.32 130.229 283.725 129.985C283.129 129.731 282.689 129.409 282.406 129.019C282.133 128.618 281.942 128.081 281.835 127.407C281.747 126.929 281.703 125.962 281.703 124.507V117.725H279.813V114.443H281.703V111.353L285.834 108.95V114.443H288.646ZM299.735 114.443H303.573V116.729C304.071 115.947 304.745 115.312 305.595 114.824C306.444 114.336 307.387 114.092 308.422 114.092C310.229 114.092 311.762 114.8 313.021 116.216C314.281 117.632 314.911 119.604 314.911 122.134C314.911 124.731 314.276 126.753 313.007 128.198C311.737 129.634 310.199 130.352 308.393 130.352C307.533 130.352 306.752 130.181 306.049 129.839C305.355 129.497 304.623 128.911 303.852 128.081V135.918H299.735V114.443ZM303.808 121.958C303.808 123.706 304.154 125 304.848 125.84C305.541 126.67 306.386 127.085 307.382 127.085C308.339 127.085 309.135 126.704 309.77 125.942C310.404 125.171 310.722 123.911 310.722 122.163C310.722 120.532 310.395 119.321 309.74 118.53C309.086 117.739 308.275 117.344 307.309 117.344C306.303 117.344 305.468 117.734 304.804 118.516C304.14 119.287 303.808 120.435 303.808 121.958ZM321.269 119.189L317.533 118.516C317.953 117.012 318.676 115.898 319.701 115.176C320.727 114.453 322.25 114.092 324.271 114.092C326.107 114.092 327.475 114.312 328.373 114.751C329.271 115.181 329.901 115.732 330.263 116.406C330.634 117.07 330.819 118.296 330.819 120.083L330.775 124.888C330.775 126.255 330.839 127.266 330.966 127.92C331.103 128.564 331.352 129.258 331.713 130H327.641C327.533 129.727 327.401 129.321 327.245 128.784C327.177 128.54 327.128 128.379 327.099 128.301C326.396 128.984 325.644 129.497 324.843 129.839C324.042 130.181 323.188 130.352 322.279 130.352C320.678 130.352 319.413 129.917 318.485 129.048C317.567 128.179 317.108 127.08 317.108 125.752C317.108 124.873 317.318 124.092 317.738 123.408C318.158 122.715 318.744 122.188 319.496 121.826C320.258 121.455 321.352 121.133 322.777 120.859C324.701 120.498 326.034 120.161 326.776 119.849V119.438C326.776 118.647 326.581 118.086 326.19 117.754C325.8 117.412 325.062 117.241 323.979 117.241C323.246 117.241 322.675 117.388 322.265 117.681C321.854 117.964 321.522 118.467 321.269 119.189ZM326.776 122.529C326.249 122.705 325.414 122.915 324.271 123.159C323.129 123.403 322.382 123.643 322.03 123.877C321.493 124.258 321.225 124.741 321.225 125.327C321.225 125.903 321.439 126.401 321.869 126.821C322.299 127.241 322.846 127.451 323.51 127.451C324.252 127.451 324.96 127.207 325.634 126.719C326.132 126.348 326.459 125.894 326.615 125.356C326.723 125.005 326.776 124.336 326.776 123.35V122.529ZM332.943 114.443H337.323L341.044 125.488L344.677 114.443H348.939L343.446 129.414L342.465 132.124C342.104 133.032 341.757 133.726 341.425 134.204C341.103 134.683 340.727 135.068 340.297 135.361C339.877 135.664 339.354 135.898 338.729 136.064C338.114 136.23 337.416 136.313 336.635 136.313C335.844 136.313 335.067 136.23 334.306 136.064L333.939 132.842C334.584 132.969 335.165 133.032 335.683 133.032C336.64 133.032 337.348 132.749 337.807 132.183C338.266 131.626 338.617 130.913 338.861 130.044L332.943 114.443ZM362.841 130L357.919 114.443H361.918L364.833 124.639L367.514 114.443H371.483L374.076 124.639L377.05 114.443H381.107L376.112 130H372.157L369.477 119.995L366.84 130H362.841ZM383.29 112.334V108.525H387.406V112.334H383.29ZM383.29 130V114.443H387.406V130H383.29ZM398.773 114.443V117.725H395.961V123.994C395.961 125.264 395.985 126.006 396.034 126.221C396.093 126.426 396.215 126.597 396.4 126.733C396.596 126.87 396.83 126.938 397.104 126.938C397.484 126.938 398.036 126.807 398.759 126.543L399.11 129.736C398.153 130.146 397.069 130.352 395.858 130.352C395.116 130.352 394.447 130.229 393.852 129.985C393.256 129.731 392.816 129.409 392.533 129.019C392.26 128.618 392.069 128.081 391.962 127.407C391.874 126.929 391.83 125.962 391.83 124.507V117.725H389.94V114.443H391.83V111.353L395.961 108.95V114.443H398.773ZM405.731 108.525V116.421C407.06 114.868 408.646 114.092 410.492 114.092C411.439 114.092 412.294 114.268 413.056 114.619C413.817 114.971 414.389 115.42 414.77 115.967C415.16 116.514 415.424 117.119 415.561 117.783C415.707 118.447 415.78 119.478 415.78 120.874V130H411.664V121.782C411.664 120.151 411.586 119.116 411.43 118.677C411.273 118.237 410.995 117.891 410.595 117.637C410.204 117.373 409.711 117.241 409.115 117.241C408.432 117.241 407.821 117.407 407.284 117.739C406.747 118.071 406.352 118.574 406.098 119.248C405.854 119.912 405.731 120.898 405.731 122.207V130H401.615V108.525H405.731ZM431.396 119.189L427.66 118.516C428.08 117.012 428.803 115.898 429.828 115.176C430.854 114.453 432.377 114.092 434.398 114.092C436.234 114.092 437.602 114.312 438.5 114.751C439.398 115.181 440.028 115.732 440.39 116.406C440.761 117.07 440.946 118.296 440.946 120.083L440.902 124.888C440.902 126.255 440.966 127.266 441.093 127.92C441.229 128.564 441.479 129.258 441.84 130H437.768C437.66 129.727 437.528 129.321 437.372 128.784C437.304 128.54 437.255 128.379 437.226 128.301C436.522 128.984 435.771 129.497 434.97 129.839C434.169 130.181 433.314 130.352 432.406 130.352C430.805 130.352 429.54 129.917 428.612 129.048C427.694 128.179 427.235 127.08 427.235 125.752C427.235 124.873 427.445 124.092 427.865 123.408C428.285 122.715 428.871 122.188 429.623 121.826C430.385 121.455 431.479 121.133 432.904 120.859C434.828 120.498 436.161 120.161 436.903 119.849V119.438C436.903 118.647 436.708 118.086 436.317 117.754C435.927 117.412 435.189 117.241 434.105 117.241C433.373 117.241 432.802 117.388 432.392 117.681C431.981 117.964 431.649 118.467 431.396 119.189ZM436.903 122.529C436.376 122.705 435.541 122.915 434.398 123.159C433.256 123.403 432.509 123.643 432.157 123.877C431.62 124.258 431.352 124.741 431.352 125.327C431.352 125.903 431.566 126.401 431.996 126.821C432.426 127.241 432.973 127.451 433.637 127.451C434.379 127.451 435.087 127.207 435.761 126.719C436.259 126.348 436.586 125.894 436.742 125.356C436.85 125.005 436.903 124.336 436.903 123.35V122.529ZM459.169 130H455.053V122.061C455.053 120.381 454.965 119.297 454.789 118.809C454.613 118.311 454.325 117.925 453.925 117.651C453.534 117.378 453.061 117.241 452.504 117.241C451.791 117.241 451.151 117.437 450.585 117.827C450.019 118.218 449.628 118.735 449.413 119.38C449.208 120.024 449.105 121.216 449.105 122.954V130H444.989V114.443H448.812V116.729C450.17 114.971 451.879 114.092 453.939 114.092C454.848 114.092 455.678 114.258 456.43 114.59C457.182 114.912 457.748 115.327 458.129 115.835C458.52 116.343 458.788 116.919 458.935 117.563C459.091 118.208 459.169 119.131 459.169 120.332V130ZM461.41 114.443H465.79L469.511 125.488L473.144 114.443H477.406L471.913 129.414L470.932 132.124C470.57 133.032 470.224 133.726 469.892 134.204C469.569 134.683 469.193 135.068 468.764 135.361C468.344 135.664 467.821 135.898 467.196 136.064C466.581 136.23 465.883 136.313 465.102 136.313C464.311 136.313 463.534 136.23 462.772 136.064L462.406 132.842C463.051 132.969 463.632 133.032 464.149 133.032C465.106 133.032 465.814 132.749 466.273 132.183C466.732 131.626 467.084 130.913 467.328 130.044L461.41 114.443ZM501.972 119.043L497.914 119.775C497.777 118.965 497.465 118.354 496.977 117.944C496.498 117.534 495.873 117.329 495.102 117.329C494.076 117.329 493.256 117.686 492.641 118.398C492.035 119.102 491.732 120.283 491.732 121.943C491.732 123.789 492.04 125.093 492.655 125.854C493.28 126.616 494.115 126.997 495.16 126.997C495.941 126.997 496.581 126.777 497.079 126.338C497.577 125.889 497.929 125.122 498.134 124.038L502.177 124.727C501.757 126.582 500.951 127.983 499.76 128.931C498.568 129.878 496.972 130.352 494.97 130.352C492.694 130.352 490.878 129.634 489.521 128.198C488.173 126.763 487.499 124.775 487.499 122.236C487.499 119.668 488.178 117.671 489.535 116.245C490.893 114.81 492.729 114.092 495.043 114.092C496.938 114.092 498.441 114.502 499.555 115.322C500.678 116.133 501.483 117.373 501.972 119.043ZM515.346 130V127.671C514.779 128.501 514.032 129.155 513.104 129.634C512.187 130.112 511.215 130.352 510.189 130.352C509.145 130.352 508.207 130.122 507.377 129.663C506.547 129.204 505.946 128.56 505.575 127.729C505.204 126.899 505.019 125.752 505.019 124.287V114.443H509.135V121.592C509.135 123.779 509.208 125.122 509.354 125.62C509.511 126.108 509.789 126.499 510.189 126.792C510.59 127.075 511.098 127.217 511.713 127.217C512.416 127.217 513.046 127.026 513.603 126.646C514.159 126.255 514.54 125.776 514.745 125.21C514.95 124.634 515.053 123.232 515.053 121.006V114.443H519.169V130H515.346ZM527.387 130H523.271V114.443H527.094V116.655C527.748 115.61 528.334 114.922 528.852 114.59C529.379 114.258 529.975 114.092 530.639 114.092C531.576 114.092 532.479 114.351 533.349 114.868L532.074 118.457C531.381 118.008 530.736 117.783 530.141 117.783C529.564 117.783 529.076 117.944 528.676 118.267C528.275 118.579 527.958 119.15 527.724 119.98C527.499 120.811 527.387 122.549 527.387 125.195V130ZM539.076 130H534.96V114.443H538.783V116.655C539.438 115.61 540.023 114.922 540.541 114.59C541.068 114.258 541.664 114.092 542.328 114.092C543.266 114.092 544.169 114.351 545.038 114.868L543.764 118.457C543.07 118.008 542.426 117.783 541.83 117.783C541.254 117.783 540.766 117.944 540.365 118.267C539.965 118.579 539.647 119.15 539.413 119.98C539.188 120.811 539.076 122.549 539.076 125.195V130ZM555.834 125.049L559.936 125.737C559.408 127.241 558.573 128.389 557.431 129.18C556.298 129.961 554.877 130.352 553.168 130.352C550.463 130.352 548.461 129.468 547.162 127.7C546.137 126.284 545.624 124.497 545.624 122.339C545.624 119.761 546.298 117.744 547.646 116.289C548.993 114.824 550.697 114.092 552.758 114.092C555.072 114.092 556.898 114.858 558.236 116.392C559.574 117.915 560.214 120.254 560.155 123.408H549.843C549.872 124.629 550.204 125.581 550.839 126.265C551.474 126.938 552.265 127.275 553.212 127.275C553.856 127.275 554.398 127.1 554.838 126.748C555.277 126.396 555.609 125.83 555.834 125.049ZM556.068 120.889C556.039 119.697 555.731 118.794 555.146 118.179C554.56 117.554 553.847 117.241 553.007 117.241C552.108 117.241 551.366 117.568 550.78 118.223C550.194 118.877 549.906 119.766 549.916 120.889H556.068ZM577.675 130H573.559V122.061C573.559 120.381 573.471 119.297 573.295 118.809C573.119 118.311 572.831 117.925 572.431 117.651C572.04 117.378 571.566 117.241 571.01 117.241C570.297 117.241 569.657 117.437 569.091 117.827C568.524 118.218 568.134 118.735 567.919 119.38C567.714 120.024 567.611 121.216 567.611 122.954V130H563.495V114.443H567.318V116.729C568.676 114.971 570.385 114.092 572.445 114.092C573.354 114.092 574.184 114.258 574.936 114.59C575.688 114.912 576.254 115.327 576.635 115.835C577.025 116.343 577.294 116.919 577.44 117.563C577.597 118.208 577.675 119.131 577.675 120.332V130ZM595.429 119.043L591.371 119.775C591.234 118.965 590.922 118.354 590.434 117.944C589.955 117.534 589.33 117.329 588.559 117.329C587.533 117.329 586.713 117.686 586.098 118.398C585.492 119.102 585.189 120.283 585.189 121.943C585.189 123.789 585.497 125.093 586.112 125.854C586.737 126.616 587.572 126.997 588.617 126.997C589.398 126.997 590.038 126.777 590.536 126.338C591.034 125.889 591.386 125.122 591.591 124.038L595.634 124.727C595.214 126.582 594.408 127.983 593.217 128.931C592.025 129.878 590.429 130.352 588.427 130.352C586.151 130.352 584.335 129.634 582.978 128.198C581.63 126.763 580.956 124.775 580.956 122.236C580.956 119.668 581.635 117.671 582.992 116.245C584.35 114.81 586.186 114.092 588.5 114.092C590.395 114.092 591.898 114.502 593.012 115.322C594.135 116.133 594.94 117.373 595.429 119.043ZM596.615 114.443H600.995L604.716 125.488L608.349 114.443H612.611L607.118 129.414L606.137 132.124C605.775 133.032 605.429 133.726 605.097 134.204C604.774 134.683 604.398 135.068 603.969 135.361C603.549 135.664 603.026 135.898 602.401 136.064C601.786 136.23 601.088 136.313 600.307 136.313C599.516 136.313 598.739 136.23 597.978 136.064L597.611 132.842C598.256 132.969 598.837 133.032 599.354 133.032C600.312 133.032 601.02 132.749 601.479 132.183C601.938 131.626 602.289 130.913 602.533 130.044L596.615 114.443Z" fill="#0F1111"/>
<path d="M226.229 164.189L222.494 163.516C222.914 162.012 223.637 160.898 224.662 160.176C225.688 159.453 227.211 159.092 229.232 159.092C231.068 159.092 232.436 159.312 233.334 159.751C234.232 160.181 234.862 160.732 235.224 161.406C235.595 162.07 235.78 163.296 235.78 165.083L235.736 169.888C235.736 171.255 235.8 172.266 235.927 172.92C236.063 173.564 236.312 174.258 236.674 175H232.602C232.494 174.727 232.362 174.321 232.206 173.784C232.138 173.54 232.089 173.379 232.06 173.301C231.356 173.984 230.604 174.497 229.804 174.839C229.003 175.181 228.148 175.352 227.24 175.352C225.639 175.352 224.374 174.917 223.446 174.048C222.528 173.179 222.069 172.08 222.069 170.752C222.069 169.873 222.279 169.092 222.699 168.408C223.119 167.715 223.705 167.188 224.457 166.826C225.219 166.455 226.312 166.133 227.738 165.859C229.662 165.498 230.995 165.161 231.737 164.849V164.438C231.737 163.647 231.542 163.086 231.151 162.754C230.761 162.412 230.023 162.241 228.939 162.241C228.207 162.241 227.636 162.388 227.226 162.681C226.815 162.964 226.483 163.467 226.229 164.189ZM231.737 167.529C231.21 167.705 230.375 167.915 229.232 168.159C228.09 168.403 227.343 168.643 226.991 168.877C226.454 169.258 226.186 169.741 226.186 170.327C226.186 170.903 226.4 171.401 226.83 171.821C227.26 172.241 227.807 172.451 228.471 172.451C229.213 172.451 229.921 172.207 230.595 171.719C231.093 171.348 231.42 170.894 231.576 170.356C231.684 170.005 231.737 169.336 231.737 168.35V167.529ZM254.003 175H249.887V167.061C249.887 165.381 249.799 164.297 249.623 163.809C249.447 163.311 249.159 162.925 248.759 162.651C248.368 162.378 247.895 162.241 247.338 162.241C246.625 162.241 245.985 162.437 245.419 162.827C244.853 163.218 244.462 163.735 244.247 164.38C244.042 165.024 243.939 166.216 243.939 167.954V175H239.823V159.443H243.646V161.729C245.004 159.971 246.713 159.092 248.773 159.092C249.682 159.092 250.512 159.258 251.264 159.59C252.016 159.912 252.582 160.327 252.963 160.835C253.354 161.343 253.622 161.919 253.769 162.563C253.925 163.208 254.003 164.131 254.003 165.332V175ZM272.46 175H268.637V172.715C268.002 173.604 267.25 174.268 266.381 174.707C265.521 175.137 264.652 175.352 263.773 175.352C261.986 175.352 260.453 174.634 259.174 173.198C257.904 171.753 257.27 169.741 257.27 167.163C257.27 164.526 257.89 162.524 259.13 161.157C260.37 159.78 261.938 159.092 263.832 159.092C265.57 159.092 267.074 159.814 268.344 161.26V153.525H272.46V175ZM261.474 166.885C261.474 168.545 261.703 169.746 262.162 170.488C262.826 171.562 263.754 172.1 264.945 172.1C265.893 172.1 266.698 171.699 267.362 170.898C268.026 170.088 268.358 168.882 268.358 167.28C268.358 165.493 268.036 164.209 267.392 163.428C266.747 162.637 265.922 162.241 264.916 162.241C263.939 162.241 263.119 162.632 262.455 163.413C261.801 164.185 261.474 165.342 261.474 166.885ZM283.432 170.562L287.562 169.932C287.738 170.732 288.095 171.343 288.632 171.763C289.169 172.173 289.921 172.378 290.888 172.378C291.952 172.378 292.753 172.183 293.29 171.792C293.651 171.519 293.832 171.152 293.832 170.693C293.832 170.381 293.734 170.122 293.539 169.917C293.334 169.722 292.875 169.541 292.162 169.375C288.842 168.643 286.737 167.974 285.849 167.368C284.618 166.528 284.003 165.361 284.003 163.867C284.003 162.52 284.535 161.387 285.6 160.469C286.664 159.551 288.314 159.092 290.551 159.092C292.68 159.092 294.262 159.438 295.297 160.132C296.332 160.825 297.045 161.851 297.436 163.208L293.554 163.926C293.388 163.32 293.07 162.856 292.602 162.534C292.143 162.212 291.483 162.051 290.624 162.051C289.54 162.051 288.764 162.202 288.295 162.505C287.982 162.72 287.826 162.998 287.826 163.34C287.826 163.633 287.963 163.882 288.236 164.087C288.607 164.36 289.887 164.746 292.074 165.244C294.271 165.742 295.805 166.353 296.674 167.075C297.533 167.808 297.963 168.828 297.963 170.137C297.963 171.562 297.367 172.788 296.176 173.813C294.984 174.839 293.222 175.352 290.888 175.352C288.769 175.352 287.089 174.922 285.849 174.062C284.618 173.203 283.812 172.036 283.432 170.562ZM305.683 153.525V161.421C307.011 159.868 308.598 159.092 310.443 159.092C311.391 159.092 312.245 159.268 313.007 159.619C313.769 159.971 314.34 160.42 314.721 160.967C315.111 161.514 315.375 162.119 315.512 162.783C315.658 163.447 315.731 164.478 315.731 165.874V175H311.615V166.782C311.615 165.151 311.537 164.116 311.381 163.677C311.225 163.237 310.946 162.891 310.546 162.637C310.155 162.373 309.662 162.241 309.066 162.241C308.383 162.241 307.772 162.407 307.235 162.739C306.698 163.071 306.303 163.574 306.049 164.248C305.805 164.912 305.683 165.898 305.683 167.207V175H301.566V153.525H305.683ZM318.969 167.002C318.969 165.635 319.306 164.312 319.979 163.032C320.653 161.753 321.605 160.776 322.836 160.103C324.076 159.429 325.458 159.092 326.981 159.092C329.335 159.092 331.264 159.858 332.768 161.392C334.271 162.915 335.023 164.844 335.023 167.178C335.023 169.531 334.262 171.484 332.738 173.037C331.225 174.58 329.315 175.352 327.011 175.352C325.585 175.352 324.223 175.029 322.924 174.385C321.635 173.74 320.653 172.798 319.979 171.558C319.306 170.308 318.969 168.789 318.969 167.002ZM323.188 167.222C323.188 168.765 323.554 169.946 324.286 170.767C325.019 171.587 325.922 171.997 326.996 171.997C328.07 171.997 328.969 171.587 329.691 170.767C330.424 169.946 330.79 168.755 330.79 167.192C330.79 165.669 330.424 164.497 329.691 163.677C328.969 162.856 328.07 162.446 326.996 162.446C325.922 162.446 325.019 162.856 324.286 163.677C323.554 164.497 323.188 165.679 323.188 167.222ZM338.144 159.443H341.981V161.729C342.479 160.947 343.153 160.312 344.003 159.824C344.853 159.336 345.795 159.092 346.83 159.092C348.637 159.092 350.17 159.8 351.43 161.216C352.689 162.632 353.319 164.604 353.319 167.134C353.319 169.731 352.685 171.753 351.415 173.198C350.146 174.634 348.607 175.352 346.801 175.352C345.941 175.352 345.16 175.181 344.457 174.839C343.764 174.497 343.031 173.911 342.26 173.081V180.918H338.144V159.443ZM342.216 166.958C342.216 168.706 342.562 170 343.256 170.84C343.949 171.67 344.794 172.085 345.79 172.085C346.747 172.085 347.543 171.704 348.178 170.942C348.812 170.171 349.13 168.911 349.13 167.163C349.13 165.532 348.803 164.321 348.148 163.53C347.494 162.739 346.684 162.344 345.717 162.344C344.711 162.344 343.876 162.734 343.212 163.516C342.548 164.287 342.216 165.435 342.216 166.958ZM363.998 167.002C363.998 165.635 364.335 164.312 365.009 163.032C365.683 161.753 366.635 160.776 367.865 160.103C369.105 159.429 370.487 159.092 372.011 159.092C374.364 159.092 376.293 159.858 377.797 161.392C379.301 162.915 380.053 164.844 380.053 167.178C380.053 169.531 379.291 171.484 377.768 173.037C376.254 174.58 374.345 175.352 372.04 175.352C370.614 175.352 369.252 175.029 367.953 174.385C366.664 173.74 365.683 172.798 365.009 171.558C364.335 170.308 363.998 168.789 363.998 167.002ZM368.217 167.222C368.217 168.765 368.583 169.946 369.315 170.767C370.048 171.587 370.951 171.997 372.025 171.997C373.1 171.997 373.998 171.587 374.721 170.767C375.453 169.946 375.819 168.755 375.819 167.192C375.819 165.669 375.453 164.497 374.721 163.677C373.998 162.856 373.1 162.446 372.025 162.446C370.951 162.446 370.048 162.856 369.315 163.677C368.583 164.497 368.217 165.679 368.217 167.222ZM397.44 175H393.324V167.061C393.324 165.381 393.236 164.297 393.061 163.809C392.885 163.311 392.597 162.925 392.196 162.651C391.806 162.378 391.332 162.241 390.775 162.241C390.062 162.241 389.423 162.437 388.856 162.827C388.29 163.218 387.899 163.735 387.685 164.38C387.479 165.024 387.377 166.216 387.377 167.954V175H383.261V159.443H387.084V161.729C388.441 159.971 390.15 159.092 392.211 159.092C393.119 159.092 393.949 159.258 394.701 159.59C395.453 159.912 396.02 160.327 396.4 160.835C396.791 161.343 397.06 161.919 397.206 162.563C397.362 163.208 397.44 164.131 397.44 165.332V175ZM401.63 175V153.525H405.746V175H401.63ZM408.031 159.443H412.411L416.132 170.488L419.765 159.443H424.027L418.534 174.414L417.553 177.124C417.191 178.032 416.845 178.726 416.513 179.204C416.19 179.683 415.814 180.068 415.385 180.361C414.965 180.664 414.442 180.898 413.817 181.064C413.202 181.23 412.504 181.313 411.723 181.313C410.932 181.313 410.155 181.23 409.394 181.064L409.027 177.842C409.672 177.969 410.253 178.032 410.771 178.032C411.728 178.032 412.436 177.749 412.895 177.183C413.354 176.626 413.705 175.913 413.949 175.044L408.031 159.443ZM435.028 157.334V153.525H439.145V157.334H435.028ZM435.028 175V159.443H439.145V175H435.028ZM457.528 175H453.412V167.061C453.412 165.381 453.324 164.297 453.148 163.809C452.973 163.311 452.685 162.925 452.284 162.651C451.894 162.378 451.42 162.241 450.863 162.241C450.15 162.241 449.511 162.437 448.944 162.827C448.378 163.218 447.987 163.735 447.772 164.38C447.567 165.024 447.465 166.216 447.465 167.954V175H443.349V159.443H447.172V161.729C448.529 159.971 450.238 159.092 452.299 159.092C453.207 159.092 454.037 159.258 454.789 159.59C455.541 159.912 456.107 160.327 456.488 160.835C456.879 161.343 457.147 161.919 457.294 162.563C457.45 163.208 457.528 164.131 457.528 165.332V175ZM468.119 159.443H472.499L476.22 170.488L479.853 159.443H484.115L478.622 174.414L477.641 177.124C477.279 178.032 476.933 178.726 476.601 179.204C476.278 179.683 475.902 180.068 475.473 180.361C475.053 180.664 474.53 180.898 473.905 181.064C473.29 181.23 472.592 181.313 471.811 181.313C471.02 181.313 470.243 181.23 469.481 181.064L469.115 177.842C469.76 177.969 470.341 178.032 470.858 178.032C471.815 178.032 472.523 177.749 472.982 177.183C473.441 176.626 473.793 175.913 474.037 175.044L468.119 159.443ZM485.814 167.002C485.814 165.635 486.151 164.312 486.825 163.032C487.499 161.753 488.451 160.776 489.682 160.103C490.922 159.429 492.304 159.092 493.827 159.092C496.181 159.092 498.109 159.858 499.613 161.392C501.117 162.915 501.869 164.844 501.869 167.178C501.869 169.531 501.107 171.484 499.584 173.037C498.07 174.58 496.161 175.352 493.856 175.352C492.431 175.352 491.068 175.029 489.77 174.385C488.48 173.74 487.499 172.798 486.825 171.558C486.151 170.308 485.814 168.789 485.814 167.002ZM490.033 167.222C490.033 168.765 490.399 169.946 491.132 170.767C491.864 171.587 492.768 171.997 493.842 171.997C494.916 171.997 495.814 171.587 496.537 170.767C497.27 169.946 497.636 168.755 497.636 167.192C497.636 165.669 497.27 164.497 496.537 163.677C495.814 162.856 494.916 162.446 493.842 162.446C492.768 162.446 491.864 162.856 491.132 163.677C490.399 164.497 490.033 165.679 490.033 167.222ZM515.346 175V172.671C514.779 173.501 514.032 174.155 513.104 174.634C512.187 175.112 511.215 175.352 510.189 175.352C509.145 175.352 508.207 175.122 507.377 174.663C506.547 174.204 505.946 173.56 505.575 172.729C505.204 171.899 505.019 170.752 505.019 169.287V159.443H509.135V166.592C509.135 168.779 509.208 170.122 509.354 170.62C509.511 171.108 509.789 171.499 510.189 171.792C510.59 172.075 511.098 172.217 511.713 172.217C512.416 172.217 513.046 172.026 513.603 171.646C514.159 171.255 514.54 170.776 514.745 170.21C514.95 169.634 515.053 168.232 515.053 166.006V159.443H519.169V175H515.346ZM527.387 175H523.271V159.443H527.094V161.655C527.748 160.61 528.334 159.922 528.852 159.59C529.379 159.258 529.975 159.092 530.639 159.092C531.576 159.092 532.479 159.351 533.349 159.868L532.074 163.457C531.381 163.008 530.736 162.783 530.141 162.783C529.564 162.783 529.076 162.944 528.676 163.267C528.275 163.579 527.958 164.15 527.724 164.98C527.499 165.811 527.387 167.549 527.387 170.195V175ZM541.684 159.443H543.969V158.271C543.969 156.963 544.105 155.986 544.379 155.342C544.662 154.697 545.175 154.175 545.917 153.774C546.669 153.364 547.616 153.159 548.759 153.159C549.931 153.159 551.078 153.335 552.201 153.687L551.645 156.558C550.99 156.401 550.36 156.323 549.755 156.323C549.159 156.323 548.729 156.465 548.466 156.748C548.212 157.021 548.085 157.554 548.085 158.345V159.443H551.161V162.681H548.085V175H543.969V162.681H541.684V159.443ZM556.552 164.189L552.816 163.516C553.236 162.012 553.959 160.898 554.984 160.176C556.01 159.453 557.533 159.092 559.555 159.092C561.391 159.092 562.758 159.312 563.656 159.751C564.555 160.181 565.185 160.732 565.546 161.406C565.917 162.07 566.103 163.296 566.103 165.083L566.059 169.888C566.059 171.255 566.122 172.266 566.249 172.92C566.386 173.564 566.635 174.258 566.996 175H562.924C562.816 174.727 562.685 174.321 562.528 173.784C562.46 173.54 562.411 173.379 562.382 173.301C561.679 173.984 560.927 174.497 560.126 174.839C559.325 175.181 558.471 175.352 557.562 175.352C555.961 175.352 554.696 174.917 553.769 174.048C552.851 173.179 552.392 172.08 552.392 170.752C552.392 169.873 552.602 169.092 553.021 168.408C553.441 167.715 554.027 167.188 554.779 166.826C555.541 166.455 556.635 166.133 558.061 165.859C559.984 165.498 561.317 165.161 562.06 164.849V164.438C562.06 163.647 561.864 163.086 561.474 162.754C561.083 162.412 560.346 162.241 559.262 162.241C558.529 162.241 557.958 162.388 557.548 162.681C557.138 162.964 556.806 163.467 556.552 164.189ZM562.06 167.529C561.532 167.705 560.697 167.915 559.555 168.159C558.412 168.403 557.665 168.643 557.313 168.877C556.776 169.258 556.508 169.741 556.508 170.327C556.508 170.903 556.723 171.401 557.152 171.821C557.582 172.241 558.129 172.451 558.793 172.451C559.535 172.451 560.243 172.207 560.917 171.719C561.415 171.348 561.742 170.894 561.898 170.356C562.006 170.005 562.06 169.336 562.06 168.35V167.529ZM584.325 175H580.209V167.061C580.209 165.381 580.121 164.297 579.945 163.809C579.77 163.311 579.481 162.925 579.081 162.651C578.69 162.378 578.217 162.241 577.66 162.241C576.947 162.241 576.308 162.437 575.741 162.827C575.175 163.218 574.784 163.735 574.569 164.38C574.364 165.024 574.262 166.216 574.262 167.954V175H570.146V159.443H573.969V161.729C575.326 159.971 577.035 159.092 579.096 159.092C580.004 159.092 580.834 159.258 581.586 159.59C582.338 159.912 582.904 160.327 583.285 160.835C583.676 161.343 583.944 161.919 584.091 162.563C584.247 163.208 584.325 164.131 584.325 165.332V175ZM595.648 159.443V162.725H592.836V168.994C592.836 170.264 592.86 171.006 592.909 171.221C592.968 171.426 593.09 171.597 593.275 171.733C593.471 171.87 593.705 171.938 593.979 171.938C594.359 171.938 594.911 171.807 595.634 171.543L595.985 174.736C595.028 175.146 593.944 175.352 592.733 175.352C591.991 175.352 591.322 175.229 590.727 174.985C590.131 174.731 589.691 174.409 589.408 174.019C589.135 173.618 588.944 173.081 588.837 172.407C588.749 171.929 588.705 170.962 588.705 169.507V162.725H586.815V159.443H588.705V156.353L592.836 153.95V159.443H595.648ZM601.581 164.189L597.846 163.516C598.266 162.012 598.988 160.898 600.014 160.176C601.039 159.453 602.562 159.092 604.584 159.092C606.42 159.092 607.787 159.312 608.686 159.751C609.584 160.181 610.214 160.732 610.575 161.406C610.946 162.07 611.132 163.296 611.132 165.083L611.088 169.888C611.088 171.255 611.151 172.266 611.278 172.92C611.415 173.564 611.664 174.258 612.025 175H607.953C607.846 174.727 607.714 174.321 607.558 173.784C607.489 173.54 607.44 173.379 607.411 173.301C606.708 173.984 605.956 174.497 605.155 174.839C604.354 175.181 603.5 175.352 602.592 175.352C600.99 175.352 599.726 174.917 598.798 174.048C597.88 173.179 597.421 172.08 597.421 170.752C597.421 169.873 597.631 169.092 598.051 168.408C598.471 167.715 599.057 167.188 599.809 166.826C600.57 166.455 601.664 166.133 603.09 165.859C605.014 165.498 606.347 165.161 607.089 164.849V164.438C607.089 163.647 606.894 163.086 606.503 162.754C606.112 162.412 605.375 162.241 604.291 162.241C603.559 162.241 602.987 162.388 602.577 162.681C602.167 162.964 601.835 163.467 601.581 164.189ZM607.089 167.529C606.562 167.705 605.727 167.915 604.584 168.159C603.441 168.403 602.694 168.643 602.343 168.877C601.806 169.258 601.537 169.741 601.537 170.327C601.537 170.903 601.752 171.401 602.182 171.821C602.611 172.241 603.158 172.451 603.822 172.451C604.564 172.451 605.272 172.207 605.946 171.719C606.444 171.348 606.771 170.894 606.928 170.356C607.035 170.005 607.089 169.336 607.089 168.35V167.529ZM613.754 170.562L617.885 169.932C618.061 170.732 618.417 171.343 618.954 171.763C619.491 172.173 620.243 172.378 621.21 172.378C622.274 172.378 623.075 172.183 623.612 171.792C623.974 171.519 624.154 171.152 624.154 170.693C624.154 170.381 624.057 170.122 623.861 169.917C623.656 169.722 623.197 169.541 622.484 169.375C619.164 168.643 617.06 167.974 616.171 167.368C614.94 166.528 614.325 165.361 614.325 163.867C614.325 162.52 614.857 161.387 615.922 160.469C616.986 159.551 618.637 159.092 620.873 159.092C623.002 159.092 624.584 159.438 625.619 160.132C626.654 160.825 627.367 161.851 627.758 163.208L623.876 163.926C623.71 163.32 623.393 162.856 622.924 162.534C622.465 162.212 621.806 162.051 620.946 162.051C619.862 162.051 619.086 162.202 618.617 162.505C618.305 162.72 618.148 162.998 618.148 163.34C618.148 163.633 618.285 163.882 618.559 164.087C618.93 164.36 620.209 164.746 622.396 165.244C624.594 165.742 626.127 166.353 626.996 167.075C627.855 167.808 628.285 168.828 628.285 170.137C628.285 171.562 627.689 172.788 626.498 173.813C625.307 174.839 623.544 175.352 621.21 175.352C619.091 175.352 617.411 174.922 616.171 174.062C614.94 173.203 614.135 172.036 613.754 170.562ZM629.955 159.443H634.335L638.056 170.488L641.688 159.443H645.951L640.458 174.414L639.477 177.124C639.115 178.032 638.769 178.726 638.437 179.204C638.114 179.683 637.738 180.068 637.309 180.361C636.889 180.664 636.366 180.898 635.741 181.064C635.126 181.23 634.428 181.313 633.646 181.313C632.855 181.313 632.079 181.23 631.317 181.064L630.951 177.842C631.596 177.969 632.177 178.032 632.694 178.032C633.651 178.032 634.359 177.749 634.818 177.183C635.277 176.626 635.629 175.913 635.873 175.044L629.955 159.443Z" fill="#0F1111"/>
<path d="M371.345 223V210.115H373.946V215.837L379.202 210.115H382.7L377.849 215.134L382.964 223H379.598L376.056 216.953L373.946 219.106V223H371.345ZM389.705 220.029L392.166 220.442C391.85 221.345 391.349 222.033 390.663 222.508C389.983 222.977 389.131 223.211 388.105 223.211C386.482 223.211 385.281 222.681 384.502 221.62C383.887 220.771 383.579 219.698 383.579 218.403C383.579 216.856 383.983 215.646 384.792 214.773C385.601 213.895 386.623 213.455 387.859 213.455C389.248 213.455 390.344 213.915 391.146 214.835C391.949 215.749 392.333 217.152 392.298 219.045H386.11C386.128 219.777 386.327 220.349 386.708 220.759C387.089 221.163 387.563 221.365 388.132 221.365C388.519 221.365 388.844 221.26 389.107 221.049C389.371 220.838 389.57 220.498 389.705 220.029ZM389.846 217.533C389.828 216.818 389.644 216.276 389.292 215.907C388.94 215.532 388.513 215.345 388.009 215.345C387.47 215.345 387.024 215.541 386.673 215.934C386.321 216.326 386.148 216.859 386.154 217.533H389.846ZM396.165 216.514L393.924 216.109C394.176 215.207 394.609 214.539 395.225 214.105C395.84 213.672 396.754 213.455 397.967 213.455C399.068 213.455 399.889 213.587 400.428 213.851C400.967 214.108 401.345 214.439 401.562 214.844C401.784 215.242 401.896 215.978 401.896 217.05L401.869 219.933C401.869 220.753 401.907 221.359 401.983 221.752C402.065 222.139 402.215 222.555 402.432 223H399.988C399.924 222.836 399.845 222.593 399.751 222.271C399.71 222.124 399.681 222.027 399.663 221.98C399.241 222.391 398.79 222.698 398.31 222.903C397.829 223.108 397.316 223.211 396.771 223.211C395.811 223.211 395.052 222.95 394.495 222.429C393.944 221.907 393.669 221.248 393.669 220.451C393.669 219.924 393.795 219.455 394.047 219.045C394.299 218.629 394.65 218.312 395.102 218.096C395.559 217.873 396.215 217.68 397.07 217.516C398.225 217.299 399.024 217.097 399.47 216.909V216.663C399.47 216.188 399.353 215.852 399.118 215.652C398.884 215.447 398.441 215.345 397.791 215.345C397.352 215.345 397.009 215.433 396.763 215.608C396.517 215.778 396.317 216.08 396.165 216.514ZM399.47 218.518C399.153 218.623 398.652 218.749 397.967 218.896C397.281 219.042 396.833 219.186 396.622 219.326C396.3 219.555 396.139 219.845 396.139 220.196C396.139 220.542 396.268 220.841 396.525 221.093C396.783 221.345 397.111 221.471 397.51 221.471C397.955 221.471 398.38 221.324 398.784 221.031C399.083 220.809 399.279 220.536 399.373 220.214C399.438 220.003 399.47 219.602 399.47 219.01V218.518ZM414.754 220.029L417.215 220.442C416.898 221.345 416.397 222.033 415.712 222.508C415.032 222.977 414.18 223.211 413.154 223.211C411.531 223.211 410.33 222.681 409.551 221.62C408.936 220.771 408.628 219.698 408.628 218.403C408.628 216.856 409.032 215.646 409.841 214.773C410.649 213.895 411.672 213.455 412.908 213.455C414.297 213.455 415.393 213.915 416.195 214.835C416.998 215.749 417.382 217.152 417.347 219.045H411.159C411.177 219.777 411.376 220.349 411.757 220.759C412.138 221.163 412.612 221.365 413.181 221.365C413.567 221.365 413.893 221.26 414.156 221.049C414.42 220.838 414.619 220.498 414.754 220.029ZM414.895 217.533C414.877 216.818 414.692 216.276 414.341 215.907C413.989 215.532 413.562 215.345 413.058 215.345C412.519 215.345 412.073 215.541 411.722 215.934C411.37 216.326 411.197 216.859 411.203 217.533H414.895ZM418.182 223L421.548 218.192L418.322 213.666H421.337L422.989 216.232L424.729 213.666H427.63L424.466 218.087L427.92 223H424.888L422.989 220.108L421.073 223H418.182ZM431.233 216.514L428.992 216.109C429.244 215.207 429.678 214.539 430.293 214.105C430.908 213.672 431.822 213.455 433.035 213.455C434.137 213.455 434.957 213.587 435.496 213.851C436.035 214.108 436.413 214.439 436.63 214.844C436.853 215.242 436.964 215.978 436.964 217.05L436.938 219.933C436.938 220.753 436.976 221.359 437.052 221.752C437.134 222.139 437.283 222.555 437.5 223H435.057C434.992 222.836 434.913 222.593 434.819 222.271C434.778 222.124 434.749 222.027 434.731 221.98C434.31 222.391 433.858 222.698 433.378 222.903C432.897 223.108 432.385 223.211 431.84 223.211C430.879 223.211 430.12 222.95 429.563 222.429C429.013 221.907 428.737 221.248 428.737 220.451C428.737 219.924 428.863 219.455 429.115 219.045C429.367 218.629 429.719 218.312 430.17 218.096C430.627 217.873 431.283 217.68 432.139 217.516C433.293 217.299 434.093 217.097 434.538 216.909V216.663C434.538 216.188 434.421 215.852 434.187 215.652C433.952 215.447 433.51 215.345 432.859 215.345C432.42 215.345 432.077 215.433 431.831 215.608C431.585 215.778 431.386 216.08 431.233 216.514ZM434.538 218.518C434.222 218.623 433.721 218.749 433.035 218.896C432.35 219.042 431.901 219.186 431.69 219.326C431.368 219.555 431.207 219.845 431.207 220.196C431.207 220.542 431.336 220.841 431.594 221.093C431.852 221.345 432.18 221.471 432.578 221.471C433.023 221.471 433.448 221.324 433.853 221.031C434.151 220.809 434.348 220.536 434.441 220.214C434.506 220.003 434.538 219.602 434.538 219.01V218.518ZM439.223 213.666H441.499V214.94C442.313 213.95 443.283 213.455 444.408 213.455C445.006 213.455 445.524 213.578 445.964 213.824C446.403 214.07 446.764 214.442 447.045 214.94C447.455 214.442 447.897 214.07 448.372 213.824C448.847 213.578 449.354 213.455 449.893 213.455C450.578 213.455 451.158 213.596 451.633 213.877C452.107 214.152 452.462 214.56 452.696 215.099C452.866 215.497 452.951 216.142 452.951 217.032V223H450.481V217.665C450.481 216.739 450.396 216.142 450.227 215.872C449.998 215.521 449.646 215.345 449.172 215.345C448.826 215.345 448.501 215.45 448.196 215.661C447.892 215.872 447.672 216.183 447.537 216.593C447.402 216.997 447.335 217.639 447.335 218.518V223H444.865V217.885C444.865 216.977 444.821 216.391 444.733 216.127C444.646 215.863 444.508 215.667 444.32 215.538C444.139 215.409 443.89 215.345 443.573 215.345C443.192 215.345 442.85 215.447 442.545 215.652C442.24 215.857 442.021 216.153 441.886 216.54C441.757 216.927 441.692 217.568 441.692 218.465V223H439.223V213.666ZM454.551 220.337L457.029 219.959C457.135 220.439 457.349 220.806 457.671 221.058C457.993 221.304 458.444 221.427 459.024 221.427C459.663 221.427 460.144 221.31 460.466 221.075C460.683 220.911 460.791 220.691 460.791 220.416C460.791 220.229 460.732 220.073 460.615 219.95C460.492 219.833 460.217 219.725 459.789 219.625C457.797 219.186 456.534 218.784 456.001 218.421C455.263 217.917 454.894 217.217 454.894 216.32C454.894 215.512 455.213 214.832 455.852 214.281C456.49 213.73 457.48 213.455 458.822 213.455C460.1 213.455 461.049 213.663 461.67 214.079C462.291 214.495 462.719 215.11 462.953 215.925L460.624 216.355C460.524 215.992 460.334 215.714 460.053 215.521C459.777 215.327 459.382 215.23 458.866 215.23C458.216 215.23 457.75 215.321 457.469 215.503C457.281 215.632 457.188 215.799 457.188 216.004C457.188 216.18 457.27 216.329 457.434 216.452C457.656 216.616 458.424 216.848 459.736 217.146C461.055 217.445 461.975 217.812 462.496 218.245C463.012 218.685 463.27 219.297 463.27 220.082C463.27 220.938 462.912 221.673 462.197 222.288C461.482 222.903 460.425 223.211 459.024 223.211C457.753 223.211 456.745 222.953 456.001 222.438C455.263 221.922 454.779 221.222 454.551 220.337Z" fill="#0F1111"/>
<rect x="190" y="260" width="8" height="34" fill="#E4F5BA"/>
<rect x="177" y="281" width="8" height="34" transform="rotate(-90 177 281)" fill="#E4F5BA"/>
<rect x="72.1763" y="175" width="5.64706" height="24" fill="#E4F5BA"/>
<rect x="63" y="189.824" width="5.64706" height="24" transform="rotate(-90 63 189.824)" fill="#E4F5BA"/>
<rect x="632.176" y="79" width="5.64706" height="24" fill="#D6F2B6"/>
<rect x="623" y="93.8235" width="5.64706" height="24" transform="rotate(-90 623 93.8235)" fill="#D6F2B6"/>
<rect x="191.735" y="59" width="3.52941" height="15" fill="#E4F5BA"/>
<rect x="186" y="68.2647" width="3.52941" height="15" transform="rotate(-90 186 68.2647)" fill="#E4F5BA"/>
<rect x="685.735" y="216" width="3.52941" height="15" fill="#D6F2B6"/>
<rect x="680" y="225.265" width="3.52941" height="15" transform="rotate(-90 680 225.265)" fill="#D6F2B6"/>
<rect x="1047" y="93" width="8" height="34" fill="#D6F2B6"/>
<rect x="1034" y="114" width="8" height="34" transform="rotate(-90 1034 114)" fill="#D6F2B6"/>
<path d="M993.393 174.54C1005.95 218.964 963.343 192.346 901.731 209.756C840.118 227.166 797.553 296.424 785 252C772.447 207.576 796.434 123.937 858.047 106.527C919.659 89.1164 980.84 130.116 993.393 174.54Z" fill="#A1D382"/>
<path d="M959.947 211.506C960.176 207.776 962.029 204.095 965.241 201.843C964.615 200.535 963.328 199.627 961.8 199.627H958.263L961.956 196.963C962.823 196.345 963.027 195.135 962.402 194.263L961.283 192.689C960.669 191.817 959.466 191.611 958.6 192.241L954.75 195.014L956.133 191.308C956.506 190.303 956.001 189.189 955.002 188.814L953.198 188.136C952.199 187.76 951.092 188.269 950.719 189.274L948.325 195.692L945.931 189.262C945.558 188.257 944.451 187.748 943.452 188.124L941.648 188.802C940.649 189.177 940.144 190.303 940.529 191.296L941.912 195.001L938.05 192.241C937.184 191.623 935.981 191.817 935.367 192.689L934.248 194.263C933.635 195.135 933.827 196.345 934.694 196.963L938.387 199.627H934.85C932.72 199.627 931 201.359 931 203.502V246.125C931 248.268 932.72 250 934.85 250H955.171C954.509 248.85 954.1 247.542 954.1 246.125V219.001C954.1 215.381 956.603 212.341 959.947 211.506ZM957.95 246.125C957.95 248.268 959.67 250 961.8 250H981.05V234.501H957.95V246.125ZM984.9 250H1004.15C1006.28 250 1008 248.268 1008 246.125V234.501H984.9V250ZM1004.15 215.126H1001.7C1002.01 214.206 1002.23 213.25 1002.23 212.244C1002.23 207.946 998.977 203.502 993.55 203.502C987.763 203.502 984.419 209.278 982.975 212.62C981.519 209.278 978.175 203.502 972.4 203.502C966.973 203.502 963.725 207.946 963.725 212.244C963.725 213.25 963.93 214.206 964.254 215.126H961.8C959.67 215.126 957.95 216.858 957.95 219.001V230.626H981.05V215.126H982.891L982.975 215.102L983.059 215.126H984.9V230.626H1008V219.001C1008 216.858 1006.28 215.126 1004.15 215.126ZM971.425 215.126C971.1 214.957 970.811 214.763 970.559 214.545C969.68 213.77 969.5 212.874 969.5 212.244C969.5 211.07 970.27 209.314 972.4 209.314C974.649 209.314 976.683 212.632 977.753 215.126H971.425ZM995.391 214.545C995.139 214.763 994.85 214.957 994.525 215.126H988.197C989.255 212.668 991.301 209.314 993.55 209.314C995.68 209.314 996.45 211.07 996.45 212.244C996.45 212.874 996.27 213.77 995.391 214.545Z" fill="#63C0B5"/>
<path d="M923.869 195.277L937.821 134.34C938.828 129.94 935.459 125.75 930.914 125.75H814.988L812.283 112.622C811.609 109.35 808.709 107 805.344 107H775.083C771.171 107 768 110.148 768 114.031V118.719C768 122.602 771.171 125.75 775.083 125.75H795.709L816.441 226.366C811.481 229.197 808.139 234.506 808.139 240.594C808.139 249.655 815.539 257 824.667 257C833.795 257 841.194 249.655 841.194 240.594C841.194 236.002 839.292 231.853 836.229 228.875H898.104C895.042 231.853 893.139 236.002 893.139 240.594C893.139 249.655 900.539 257 909.667 257C918.795 257 926.194 249.655 926.194 240.594C926.194 234.098 922.391 228.485 916.874 225.827L918.503 218.715C919.51 214.315 916.141 210.125 911.595 210.125H832.375L830.443 200.75H916.962C920.269 200.75 923.136 198.478 923.869 195.277Z" fill="#398378"/>
<path d="M880.942 166.162C881.302 164.437 881.008 162.77 880.249 161.364C880.477 159.546 879.939 157.665 878.912 156.261C878.839 152.003 876.151 149 870.206 149C869.667 149 869.05 149.001 868.493 149.001C860.509 149.001 858.027 152.047 854.867 152.047H854.031C853.596 151.668 853.025 151.437 852.4 151.437H847.467C846.104 151.437 845 152.529 845 153.875V172.156C845 173.502 846.104 174.594 847.467 174.594H852.4C853.313 174.594 854.109 174.103 854.536 173.375H855.079C856.555 174.666 858.626 177.995 860.38 179.728C861.433 180.769 861.162 188 865.911 188C870.35 188 873.255 185.567 873.255 180.023C873.255 178.62 872.952 177.453 872.573 176.477H875.385C879.131 176.477 882 173.311 882 169.959C882 168.5 881.618 167.293 880.942 166.162ZM849.933 171.547C848.912 171.547 848.083 170.728 848.083 169.719C848.083 168.709 848.912 167.891 849.933 167.891C850.955 167.891 851.783 168.709 851.783 169.719C851.783 170.728 850.955 171.547 849.933 171.547ZM875.385 172.821H867.369C867.369 175.702 869.555 177.039 869.555 180.023C869.555 181.832 869.555 184.344 865.911 184.344C864.454 182.903 865.182 179.303 862.996 177.142C860.949 175.119 857.894 169.719 855.708 169.719H854.867V155.538C858.999 155.538 862.575 152.657 868.097 152.657H871.013C873.75 152.657 875.701 153.961 875.107 157.677C876.279 158.298 877.15 160.452 876.182 162.062C877.845 163.615 877.623 165.952 876.583 167.06C877.312 167.06 878.307 168.501 878.3 169.94C878.293 171.381 877.012 172.821 875.385 172.821Z" fill="#F19436"/>
<defs>
<linearGradient id="paint0_linear_2_56" x1="1177" y1="15" x2="1.27402e-06" y2="12" gradientUnits="userSpaceOnUse">
<stop stop-color="#ACEA97"/>
<stop offset="1" stop-color="#D5ED89"/>
</linearGradient>
<linearGradient id="paint1_linear_2_56" x1="588.5" y1="0" x2="581.5" y2="555" gradientUnits="userSpaceOnUse">
<stop stop-color="#EAEDED" stop-opacity="0"/>
<stop offset="0.390625" stop-color="#EAEDED" stop-opacity="0"/>
<stop offset="0.916667" stop-color="#EAEDED"/>
</linearGradient>
</defs>
</svg>
