<svg width="438" height="136" viewBox="0 0 438 136" fill="none" xmlns="http://www.w3.org/2000/svg">
<path d="M2.95312 73.1406L11.2969 71.8281C11.7656 75.1719 13.0625 77.7344 15.1875 79.5156C17.3438 81.2969 20.3438 82.1875 24.1875 82.1875C28.0625 82.1875 30.9375 81.4062 32.8125 79.8438C34.6875 78.25 35.625 76.3906 35.625 74.2656C35.625 72.3594 34.7969 70.8594 33.1406 69.7656C31.9844 69.0156 29.1094 68.0625 24.5156 66.9062C18.3281 65.3438 14.0312 64 11.625 62.875C9.25 61.7188 7.4375 60.1406 6.1875 58.1406C4.96875 56.1094 4.35938 53.875 4.35938 51.4375C4.35938 49.2188 4.85938 47.1719 5.85938 45.2969C6.89062 43.3906 8.28125 41.8125 10.0312 40.5625C11.3438 39.5938 13.125 38.7812 15.375 38.125C17.6562 37.4375 20.0938 37.0938 22.6875 37.0938C26.5938 37.0938 30.0156 37.6562 32.9531 38.7812C35.9219 39.9062 38.1094 41.4375 39.5156 43.375C40.9219 45.2812 41.8906 47.8438 42.4219 51.0625L34.1719 52.1875C33.7969 49.625 32.7031 47.625 30.8906 46.1875C29.1094 44.75 26.5781 44.0312 23.2969 44.0312C19.4219 44.0312 16.6562 44.6719 15 45.9531C13.3438 47.2344 12.5156 48.7344 12.5156 50.4531C12.5156 51.5469 12.8594 52.5312 13.5469 53.4062C14.2344 54.3125 15.3125 55.0625 16.7812 55.6562C17.625 55.9688 20.1094 56.6875 24.2344 57.8125C30.2031 59.4062 34.3594 60.7188 36.7031 61.75C39.0781 62.75 40.9375 64.2188 42.2812 66.1562C43.625 68.0938 44.2969 70.5 44.2969 73.375C44.2969 76.1875 43.4688 78.8438 41.8125 81.3438C40.1875 83.8125 37.8281 85.7344 34.7344 87.1094C31.6406 88.4531 28.1406 89.125 24.2344 89.125C17.7656 89.125 12.8281 87.7812 9.42188 85.0938C6.04688 82.4062 3.89062 78.4219 2.95312 73.1406ZM86.8125 69.7656L95.1094 70.8438C94.2031 76.5625 91.875 81.0469 88.125 84.2969C84.4062 87.5156 79.8281 89.125 74.3906 89.125C67.5781 89.125 62.0938 86.9062 57.9375 82.4688C53.8125 78 51.75 71.6094 51.75 63.2969C51.75 57.9219 52.6406 53.2188 54.4219 49.1875C56.2031 45.1562 58.9062 42.1406 62.5312 40.1406C66.1875 38.1094 70.1562 37.0938 74.4375 37.0938C79.8438 37.0938 84.2656 38.4688 87.7031 41.2188C91.1406 43.9375 93.3438 47.8125 94.3125 52.8438L86.1094 54.1094C85.3281 50.7656 83.9375 48.25 81.9375 46.5625C79.9688 44.875 77.5781 44.0312 74.7656 44.0312C70.5156 44.0312 67.0625 45.5625 64.4062 48.625C61.75 51.6562 60.4219 56.4688 60.4219 63.0625C60.4219 69.75 61.7031 74.6094 64.2656 77.6406C66.8281 80.6719 70.1719 82.1875 74.2969 82.1875C77.6094 82.1875 80.375 81.1719 82.5938 79.1406C84.8125 77.1094 86.2188 73.9844 86.8125 69.7656ZM134.812 81.8594C131.688 84.5156 128.672 86.3906 125.766 87.4844C122.891 88.5781 119.797 89.125 116.484 89.125C111.016 89.125 106.812 87.7969 103.875 85.1406C100.938 82.4531 99.4688 79.0312 99.4688 74.875C99.4688 72.4375 100.016 70.2188 101.109 68.2188C102.234 66.1875 103.688 64.5625 105.469 63.3438C107.281 62.125 109.312 61.2031 111.562 60.5781C113.219 60.1406 115.719 59.7188 119.062 59.3125C125.875 58.5 130.891 57.5312 134.109 56.4062C134.141 55.25 134.156 54.5156 134.156 54.2031C134.156 50.7656 133.359 48.3438 131.766 46.9375C129.609 45.0312 126.406 44.0781 122.156 44.0781C118.188 44.0781 115.25 44.7812 113.344 46.1875C111.469 47.5625 110.078 50.0156 109.172 53.5469L100.922 52.4219C101.672 48.8906 102.906 46.0469 104.625 43.8906C106.344 41.7031 108.828 40.0312 112.078 38.875C115.328 37.6875 119.094 37.0938 123.375 37.0938C127.625 37.0938 131.078 37.5938 133.734 38.5938C136.391 39.5938 138.344 40.8594 139.594 42.3906C140.844 43.8906 141.719 45.7969 142.219 48.1094C142.5 49.5469 142.641 52.1406 142.641 55.8906V67.1406C142.641 74.9844 142.812 79.9531 143.156 82.0469C143.531 84.1094 144.25 86.0938 145.312 88H136.5C135.625 86.25 135.062 84.2031 134.812 81.8594ZM134.109 63.0156C131.047 64.2656 126.453 65.3281 120.328 66.2031C116.859 66.7031 114.406 67.2656 112.969 67.8906C111.531 68.5156 110.422 69.4375 109.641 70.6562C108.859 71.8438 108.469 73.1719 108.469 74.6406C108.469 76.8906 109.312 78.7656 111 80.2656C112.719 81.7656 115.219 82.5156 118.5 82.5156C121.75 82.5156 124.641 81.8125 127.172 80.4062C129.703 78.9688 131.562 77.0156 132.75 74.5469C133.656 72.6406 134.109 69.8281 134.109 66.1094V63.0156ZM155.766 88V38.2188H163.312V45.2031C164.875 42.7656 166.953 40.8125 169.547 39.3438C172.141 37.8438 175.094 37.0938 178.406 37.0938C182.094 37.0938 185.109 37.8594 187.453 39.3906C189.828 40.9219 191.5 43.0625 192.469 45.8125C196.406 40 201.531 37.0938 207.844 37.0938C212.781 37.0938 216.578 38.4688 219.234 41.2188C221.891 43.9375 223.219 48.1406 223.219 53.8281V88H214.828V56.6406C214.828 53.2656 214.547 50.8438 213.984 49.375C213.453 47.875 212.469 46.6719 211.031 45.7656C209.594 44.8594 207.906 44.4062 205.969 44.4062C202.469 44.4062 199.562 45.5781 197.25 47.9219C194.938 50.2344 193.781 53.9531 193.781 59.0781V88H185.344V55.6562C185.344 51.9062 184.656 49.0938 183.281 47.2188C181.906 45.3438 179.656 44.4062 176.531 44.4062C174.156 44.4062 171.953 45.0312 169.922 46.2812C167.922 47.5312 166.469 49.3594 165.562 51.7656C164.656 54.1719 164.203 57.6406 164.203 62.1719V88H155.766ZM268.219 81.8594C265.094 84.5156 262.078 86.3906 259.172 87.4844C256.297 88.5781 253.203 89.125 249.891 89.125C244.422 89.125 240.219 87.7969 237.281 85.1406C234.344 82.4531 232.875 79.0312 232.875 74.875C232.875 72.4375 233.422 70.2188 234.516 68.2188C235.641 66.1875 237.094 64.5625 238.875 63.3438C240.688 62.125 242.719 61.2031 244.969 60.5781C246.625 60.1406 249.125 59.7188 252.469 59.3125C259.281 58.5 264.297 57.5312 267.516 56.4062C267.547 55.25 267.562 54.5156 267.562 54.2031C267.562 50.7656 266.766 48.3438 265.172 46.9375C263.016 45.0312 259.812 44.0781 255.562 44.0781C251.594 44.0781 248.656 44.7812 246.75 46.1875C244.875 47.5625 243.484 50.0156 242.578 53.5469L234.328 52.4219C235.078 48.8906 236.312 46.0469 238.031 43.8906C239.75 41.7031 242.234 40.0312 245.484 38.875C248.734 37.6875 252.5 37.0938 256.781 37.0938C261.031 37.0938 264.484 37.5938 267.141 38.5938C269.797 39.5938 271.75 40.8594 273 42.3906C274.25 43.8906 275.125 45.7969 275.625 48.1094C275.906 49.5469 276.047 52.1406 276.047 55.8906V67.1406C276.047 74.9844 276.219 79.9531 276.562 82.0469C276.938 84.1094 277.656 86.0938 278.719 88H269.906C269.031 86.25 268.469 84.2031 268.219 81.8594ZM267.516 63.0156C264.453 64.2656 259.859 65.3281 253.734 66.2031C250.266 66.7031 247.812 67.2656 246.375 67.8906C244.938 68.5156 243.828 69.4375 243.047 70.6562C242.266 71.8438 241.875 73.1719 241.875 74.6406C241.875 76.8906 242.719 78.7656 244.406 80.2656C246.125 81.7656 248.625 82.5156 251.906 82.5156C255.156 82.5156 258.047 81.8125 260.578 80.4062C263.109 78.9688 264.969 77.0156 266.156 74.5469C267.062 72.6406 267.516 69.8281 267.516 66.1094V63.0156ZM284.719 88V81.1562L316.406 44.7812C312.812 44.9688 309.641 45.0625 306.891 45.0625H286.594V38.2188H327.281V43.7969L300.328 75.3906L295.125 81.1562C298.906 80.875 302.453 80.7344 305.766 80.7344H328.781V88H284.719ZM334.031 63.1094C334.031 53.8906 336.594 47.0625 341.719 42.625C346 38.9375 351.219 37.0938 357.375 37.0938C364.219 37.0938 369.812 39.3438 374.156 43.8438C378.5 48.3125 380.672 54.5 380.672 62.4062C380.672 68.8125 379.703 73.8594 377.766 77.5469C375.859 81.2031 373.062 84.0469 369.375 86.0781C365.719 88.1094 361.719 89.125 357.375 89.125C350.406 89.125 344.766 86.8906 340.453 82.4219C336.172 77.9531 334.031 71.5156 334.031 63.1094ZM342.703 63.1094C342.703 69.4844 344.094 74.2656 346.875 77.4531C349.656 80.6094 353.156 82.1875 357.375 82.1875C361.562 82.1875 365.047 80.5938 367.828 77.4062C370.609 74.2188 372 69.3594 372 62.8281C372 56.6719 370.594 52.0156 367.781 48.8594C365 45.6719 361.531 44.0781 357.375 44.0781C353.156 44.0781 349.656 45.6562 346.875 48.8125C344.094 51.9688 342.703 56.7344 342.703 63.1094ZM390.609 88V38.2188H398.203V45.2969C401.859 39.8281 407.141 37.0938 414.047 37.0938C417.047 37.0938 419.797 37.6406 422.297 38.7344C424.828 39.7969 426.719 41.2031 427.969 42.9531C429.219 44.7031 430.094 46.7812 430.594 49.1875C430.906 50.75 431.062 53.4844 431.062 57.3906V88H422.625V57.7188C422.625 54.2812 422.297 51.7188 421.641 50.0312C420.984 48.3125 419.812 46.9531 418.125 45.9531C416.469 44.9219 414.516 44.4062 412.266 44.4062C408.672 44.4062 405.562 45.5469 402.938 47.8281C400.344 50.1094 399.047 54.4375 399.047 60.8125V88H390.609Z" fill="black"/>
<path d="M309.32 94.7001C312.298 98.618 307.155 114.001 300.339 119.181C293.524 124.361 304.298 105.618 301.32 101.7C298.342 97.7823 277.005 102.38 283.82 97.2001C290.635 92.0201 306.342 90.7823 309.32 94.7001Z" fill="#F29D38"/>
<path d="M288 110.681C288 122.305 249.944 135.999 203 135.999C156.056 135.999 155.5 103.123 155.5 91.4988C155.5 79.8745 156.056 128.983 203 128.983C249.944 128.983 288 99.0565 288 110.681Z" fill="#F29D38"/>
</svg>
